<svg width="232" height="105" viewBox="0 0 232 105" fill="none" xmlns="http://www.w3.org/2000/svg" role="img" aria-label="Logo AskTrust" focusable="false" aria-hidden="false">
<path d="M23.5472 26.7757C23.5326 26.8827 23.5094 26.9883 23.4778 27.0915L14.0043 58.0205C13.7468 58.861 12.9709 59.4348 12.092 59.4348H5.85796C4.46932 59.4348 3.50329 58.0544 3.97895 56.7497L17.522 19.6039C17.8098 18.8144 18.5606 18.289 19.401 18.289H22.4121C23.6239 18.289 24.5573 19.3582 24.3938 20.5589L23.5472 26.7757ZM33.2469 59.4348C32.3685 59.4348 31.593 58.8617 31.3351 58.0221L21.8309 27.08C21.8015 26.9844 21.7794 26.8867 21.7646 26.7878L20.8393 20.5841C20.659 19.3754 21.5953 18.289 22.8174 18.289H25.8857C26.7248 18.289 27.4746 18.8128 27.7635 19.6006L41.3824 56.7464C41.861 58.0516 40.8948 59.4348 39.5047 59.4348H33.2469ZM29.3765 44.0899C30.481 44.0899 31.3765 44.9853 31.3765 46.0899V49.7482C31.3765 50.8528 30.481 51.7482 29.3765 51.7482H12.4306C11.326 51.7482 10.4306 50.8528 10.4306 49.7482V46.0899C10.4306 44.9853 11.326 44.0899 12.4306 44.0899H29.3765Z" fill="#FAFAFA"/>
<path d="M60.8184 50.8439C60.8184 50.3164 60.6408 49.8643 60.2857 49.4875C59.9492 49.0918 59.351 48.7339 58.4911 48.4136C57.6312 48.0745 56.4255 47.7354 54.874 47.3963C53.3972 47.076 52.0045 46.6521 50.696 46.1246C49.4062 45.5971 48.2752 44.9565 47.3032 44.203C46.3311 43.4494 45.5647 42.5545 45.0039 41.5183C44.4618 40.4821 44.1907 39.2952 44.1907 37.9576C44.1907 36.6577 44.4618 35.4331 45.0039 34.2839C45.5647 33.1158 46.3778 32.0891 47.4434 31.2036C48.5276 30.2993 49.8455 29.5928 51.397 29.0841C52.9485 28.5566 54.7151 28.2929 56.6966 28.2929C59.4258 28.2929 61.7811 28.7168 63.7626 29.5645C65.7441 30.3935 67.2676 31.5616 68.3332 33.0687C69.0348 34.0319 69.5094 35.0937 69.757 36.2541C69.9875 37.3343 69.064 38.2402 67.9595 38.2402H62.51C61.4054 38.2402 60.5988 37.2933 60.1318 36.2924C60.127 36.2822 60.1223 36.2721 60.1174 36.262C59.8744 35.7157 59.4725 35.3012 58.9117 35.0186C58.3509 34.7172 57.6032 34.5665 56.6685 34.5665C56.0143 34.5665 55.4161 34.6889 54.874 34.9338C54.3505 35.1788 53.9299 35.5179 53.6122 35.9512C53.2944 36.3845 53.1355 36.8932 53.1355 37.4772C53.1355 37.8917 53.2289 38.2685 53.4159 38.6076C53.6215 38.9279 53.9299 39.2293 54.3412 39.5119C54.7525 39.7756 55.2759 40.0206 55.9114 40.2466C56.547 40.4539 57.3134 40.6423 58.2107 40.8118C60.2483 41.1886 62.155 41.7255 63.9309 42.4226C65.7067 43.1197 67.1461 44.1088 68.249 45.3899C69.3706 46.6709 69.9314 48.3948 69.9314 50.5613C69.9314 51.9178 69.623 53.1706 69.0061 54.3198C68.3892 55.4502 67.5013 56.4487 66.3423 57.3154C65.1833 58.1631 63.7907 58.8225 62.1644 59.2935C60.538 59.7645 58.7061 60 56.6685 60C53.7711 60 51.3222 59.4819 49.322 58.4457C47.3219 57.3907 45.8077 56.0719 44.7796 54.4894C44.1784 53.5357 43.7562 52.5753 43.5131 51.6083C43.2438 50.537 44.1608 49.6288 45.2654 49.6288H50.1478C51.2215 49.6288 52.0242 50.5224 52.4838 51.4927C52.5599 51.6532 52.6462 51.8043 52.7429 51.9461C53.1729 52.5489 53.743 52.9917 54.4534 53.2742C55.1637 53.5568 55.9862 53.6981 56.9209 53.6981C57.7808 53.6981 58.4911 53.5757 59.0519 53.3308C59.6314 53.0858 60.0707 52.7562 60.3698 52.3417C60.6689 51.9084 60.8184 51.4091 60.8184 50.8439Z" fill="#FAFAFA"/>
<path d="M81.8953 16C82.9999 16 83.8953 16.8954 83.8953 18V57.4348C83.8953 58.5394 82.9999 59.4348 81.8953 59.4348H76.4459C75.3413 59.4348 74.4459 58.5394 74.4459 57.4348V18C74.4459 16.8954 75.3413 16 76.4459 16H81.8953ZM98.9861 28.8581C100.689 28.8581 101.613 30.8503 100.513 32.1501L90.1202 44.429L84.9296 49.6603C84.0443 50.5525 82.5652 50.4166 81.8573 49.378L79.9126 46.5248C79.4276 45.8133 79.4525 44.8713 79.9743 44.1864L84.8487 37.7881L91.3703 29.611C91.7498 29.1352 92.3253 28.8581 92.9339 28.8581H98.9861ZM94.327 59.4348C93.6148 59.4348 92.9563 59.056 92.5982 58.4404L85.9875 47.0751C85.469 46.1837 85.7133 45.0442 86.5515 44.4437L90.3306 41.7363C91.2661 41.0661 92.5728 41.3217 93.1868 42.295L102.065 56.3677C102.905 57.6994 101.948 59.4348 100.373 59.4348H94.327Z" fill="#FAFAFA"/>
<path d="M5.86047 86.6355L13.0465 82.1262C14.0078 81.5031 14.5969 80.919 14.814 80.3738C15.0465 79.8131 15.1628 79.2679 15.1628 78.7383C15.1628 78.0997 14.9302 77.5 14.4651 76.9393C14.0155 76.3629 13.3798 76.0748 12.5581 76.0748C11.9535 76.0748 11.4419 76.215 11.0233 76.4953C10.6202 76.7601 10.3101 77.1184 10.093 77.5701C9.89147 78.0218 9.7907 78.528 9.7907 79.0888C9.7907 79.7897 9.9845 80.4984 10.3721 81.215C10.7597 81.9315 11.2713 82.6869 11.907 83.4813C12.5581 84.2757 13.2791 85.148 14.0698 86.0981L27.1372 101.201C28.2581 102.496 27.3379 104.509 25.6248 104.509H22.1626C21.5863 104.509 21.038 104.261 20.6583 103.827L8.27907 89.6963C7.2093 88.3255 6.27907 87.0639 5.48837 85.9112C4.71318 84.7586 4.10853 83.6371 3.67442 82.5467C3.24031 81.4564 3.02326 80.3349 3.02326 79.1822C3.02326 77.391 3.41085 75.81 4.18605 74.4393C4.97674 73.053 6.08527 71.9704 7.51163 71.1916C8.95349 70.3972 10.6434 70 12.5814 70C14.3798 70 15.938 70.3738 17.2558 71.1215C18.5891 71.8692 19.6202 72.866 20.3488 74.1121C21.0775 75.3427 21.4419 76.6978 21.4419 78.1776C21.4419 79.2056 21.2481 80.1791 20.8605 81.0981C20.4729 82.0171 19.938 82.8583 19.2558 83.6215C18.5891 84.3847 17.8217 85.0779 16.9535 85.7009L9.42272 90.979C9.26575 91.089 9.12392 91.2199 9.0103 91.3743C8.77796 91.69 8.58073 92.0107 8.4186 92.3364C8.23256 92.7259 8.09302 93.1231 8 93.528C7.92248 93.933 7.88372 94.3692 7.88372 94.8364C7.88372 95.6464 8.05426 96.3629 8.39535 96.986C8.73643 97.5935 9.18605 98.0685 9.74419 98.4112C10.3178 98.7539 10.938 98.9252 11.6047 98.9252C12.8605 98.9252 14.0698 98.6526 15.2326 98.1075C16.4109 97.5467 17.4651 96.7601 18.3953 95.7477C19.3256 94.7352 20.062 93.528 20.6047 92.1262C20.9254 91.2977 21.1513 90.4202 21.2824 89.4937C21.4373 88.4001 22.314 87.5 23.4186 87.5H25.9767C27.0813 87.5 27.986 88.3968 27.9009 89.4981C27.8143 90.6185 27.6535 91.7048 27.4186 92.757C27.062 94.4081 26.4651 95.9346 25.6279 97.3364C24.8062 98.7383 23.6977 99.9688 22.3023 101.028C22.2248 101.075 22.0775 101.168 21.8605 101.308C21.7398 101.383 21.6385 101.444 21.5568 101.49C21.4659 101.542 21.3759 101.596 21.2905 101.657C19.7065 102.779 18.1445 103.613 16.6047 104.159C15.0233 104.72 13.1783 105 11.0698 105C8.7907 105 6.82171 104.587 5.16279 103.762C3.51938 102.936 2.24806 101.799 1.34884 100.35C0.449612 98.9019 0 97.243 0 95.3738C0 94.0498 0.248062 92.8972 0.744186 91.9159C1.24031 90.919 1.93023 90 2.81395 89.1589C3.69767 88.3178 4.71318 87.4766 5.86047 86.6355Z" fill="#FAFAFA"/>
<path d="M48.3168 63C49.4213 63 50.3168 63.8954 50.3168 65V102.431C50.3168 103.535 49.4213 104.431 48.3168 104.431H42.2613C41.1568 104.431 40.2613 103.535 40.2613 102.431V65C40.2613 63.8954 41.1568 63 42.2613 63H48.3168ZM60.8646 63C61.9692 63 62.8646 63.8954 62.8646 65V68.7114C62.8646 69.816 61.9692 70.7114 60.8646 70.7114H30C28.8954 70.7114 28 69.816 28 68.7114V65C28 63.8954 28.8954 63 30 63H60.8646Z" fill="#FAFAFA"/>
<path d="M74.5243 81.2683V102.431C74.5243 103.535 73.6289 104.431 72.5243 104.431H66.87C65.7654 104.431 64.87 103.535 64.87 102.431V75.6423C64.87 74.5377 65.7654 73.6423 66.87 73.6423H72.0525C73.0932 73.6423 73.96 74.4404 74.0457 75.4775L74.5243 81.2683ZM82.4312 73.1585C83.1892 73.2489 83.6816 73.9392 83.6668 74.7025L83.5498 80.7679C83.5336 81.605 82.8068 82.252 81.9728 82.1789V82.1789C81.3234 82.122 80.7791 82.0935 80.3399 82.0935C79.213 82.0935 78.239 82.2263 77.4178 82.4919C76.6156 82.7385 75.9472 83.1179 75.4124 83.6301C74.8967 84.1233 74.5148 84.7493 74.2665 85.5081C74.1694 85.8295 74.0946 86.173 74.0421 86.5385C73.9441 87.2204 73.171 87.6462 72.5938 87.2702V87.2702C72.3505 87.1118 72.203 86.841 72.2073 86.5508C72.2353 84.6658 72.4347 82.9429 72.8054 81.3821C73.2256 79.6748 73.8177 78.2046 74.5816 76.9715C75.3456 75.7195 76.2718 74.7615 77.3605 74.0976C78.4491 73.4146 79.6714 73.0732 81.0274 73.0732C81.5049 73.0732 81.9728 73.1016 82.4312 73.1585V73.1585Z" fill="#FAFAFA"/>
<path d="M105.12 96.9472V75.6423C105.12 74.5377 106.016 73.6423 107.12 73.6423H112.803C113.908 73.6423 114.803 74.5377 114.803 75.6423V102.431C114.803 103.535 113.908 104.431 112.803 104.431H107.589C106.55 104.431 105.684 103.635 105.596 102.599L105.12 96.9472ZM105.983 91.9178C106.045 91.2356 106.584 90.6746 107.269 90.6592V90.6592C107.976 90.6432 108.562 91.2125 108.525 91.9189C108.442 93.4997 108.205 94.9861 107.813 96.378C107.317 98.1233 106.581 99.6409 105.607 100.931C104.652 102.221 103.468 103.226 102.055 103.947C100.661 104.649 99.047 105 97.2135 105C95.6856 105 94.2819 104.791 93.0023 104.374C91.7418 103.938 90.6531 103.264 89.7364 102.354C88.8197 101.424 88.1035 100.238 87.5878 98.7967C87.0912 97.336 86.843 95.5908 86.843 93.561V75.6423C86.843 74.5377 87.7384 73.6423 88.843 73.6423H94.4973C95.6019 73.6423 96.4973 74.5377 96.4973 75.6423V93.6179C96.4973 94.3008 96.5833 94.8889 96.7552 95.3821C96.927 95.8753 97.1753 96.2927 97.5 96.6341C97.8247 96.9566 98.2258 97.2033 98.7032 97.374C99.1998 97.5257 99.7632 97.6016 100.393 97.6016C101.845 97.6016 102.981 97.2981 103.803 96.6911C104.624 96.084 105.197 95.2588 105.521 94.2154C105.754 93.5102 105.908 92.7444 105.983 91.9178Z" fill="#FAFAFA"/>
<path d="M136.375 95.7805C136.375 95.2493 136.194 94.794 135.831 94.4146C135.487 94.0163 134.876 93.6558 133.998 93.3333C133.119 92.9919 131.887 92.6504 130.302 92.3089C128.793 91.9865 127.37 91.5596 126.033 91.0285C124.716 90.4973 123.56 89.8523 122.567 89.0935C121.574 88.3347 120.791 87.4336 120.218 86.3902C119.664 85.3469 119.387 84.1518 119.387 82.8049C119.387 81.4959 119.664 80.2629 120.218 79.1057C120.791 77.9295 121.622 76.8957 122.71 76.0041C123.818 75.0935 125.164 74.3821 126.75 73.8699C128.335 73.3388 130.14 73.0732 132.164 73.0732C134.952 73.0732 137.359 73.5 139.383 74.3537C141.408 75.1883 142.964 76.3645 144.053 77.8821C144.773 78.8558 145.259 79.9296 145.511 81.1035C145.743 82.1835 144.819 83.0894 143.715 83.0894H138.06C136.956 83.0894 136.148 82.1425 135.68 81.142C135.673 81.1271 135.666 81.1123 135.659 81.0976C135.411 80.5474 135 80.1301 134.427 79.8455C133.854 79.542 133.09 79.3902 132.135 79.3902C131.467 79.3902 130.856 79.5136 130.302 79.7602C129.767 80.0068 129.337 80.3482 129.013 80.7846C128.688 81.2209 128.526 81.7331 128.526 82.3211C128.526 82.7385 128.621 83.1179 128.812 83.4594C129.022 83.7818 129.337 84.0854 129.758 84.3699C130.178 84.6355 130.713 84.8821 131.362 85.1098C132.011 85.3184 132.794 85.5081 133.711 85.6789C135.793 86.0583 137.741 86.5989 139.555 87.3008C141.37 88.0027 142.84 88.9986 143.967 90.2886C145.113 91.5786 145.686 93.3144 145.686 95.4959C145.686 96.8618 145.371 98.1233 144.741 99.2805C144.11 100.419 143.203 101.424 142.019 102.297C140.835 103.15 139.412 103.814 137.75 104.289C136.089 104.763 134.217 105 132.135 105C129.175 105 126.673 104.478 124.63 103.435C122.586 102.373 121.039 101.045 119.989 99.4512C119.372 98.4863 118.939 97.5146 118.691 96.5361C118.42 95.4653 119.337 94.5569 120.442 94.5569H125.516C126.589 94.5569 127.393 95.4498 127.853 96.4192C127.932 96.5862 128.023 96.7432 128.125 96.8902C128.564 97.4973 129.146 97.9431 129.872 98.2276C130.598 98.5122 131.438 98.6545 132.393 98.6545C133.272 98.6545 133.998 98.5312 134.57 98.2846C135.163 98.0379 135.611 97.706 135.917 97.2886C136.223 96.8523 136.375 96.3496 136.375 95.7805Z" fill="#FAFAFA"/>
<path d="M164.542 73.6423C165.646 73.6423 166.542 74.5377 166.542 75.6423V78.3008C166.542 79.4054 165.646 80.3008 164.542 80.3008H149.863C148.759 80.3008 147.863 79.4054 147.863 78.3008V75.6423C147.863 74.5377 148.759 73.6423 149.863 73.6423H164.542ZM151.788 67.9878C151.788 66.8832 152.683 65.9878 153.788 65.9878H159.442C160.547 65.9878 161.442 66.8832 161.442 67.9878V94.3862C161.442 95.2019 161.538 95.8374 161.729 96.2927C161.92 96.729 162.244 97.042 162.703 97.2317C163.18 97.4024 163.811 97.4878 164.594 97.4878C165.147 97.4878 165.606 97.4783 165.969 97.4594V97.4594C166.509 97.4028 167 97.8149 167 98.3584V102.72C167 103.587 166.443 104.368 165.596 104.556C165.212 104.641 164.821 104.713 164.422 104.772C163.524 104.924 162.569 105 161.557 105C159.494 105 157.728 104.678 156.257 104.033C154.806 103.388 153.698 102.373 152.934 100.988C152.17 99.603 151.788 97.8008 151.788 95.5813V67.9878Z" fill="#FAFAFA"/>
<path d="M196.513 21.053C215.712 21.053 231.894 34.1819 231.895 51.0774C231.894 58.0539 229.096 64.4393 224.473 69.4895C224.37 69.6011 224.265 69.7102 224.161 69.8206L225.782 78.6516C226.302 81.4851 222.903 83.3383 220.803 81.3665L215.522 76.4084C210.019 79.3861 203.492 81.1018 196.513 81.1018C179.507 81.1018 164.958 70.8562 161.77 56.7893L161.337 54.8831L163.233 54.4075C176.356 51.1145 185.526 41.0304 185.526 29.4924C185.526 27.842 185.342 26.2285 184.987 24.6653L184.555 22.759L186.45 22.2834C189.643 21.4823 193.021 21.053 196.513 21.053ZM185.22 47.7151C183.149 47.7151 181.47 49.394 181.47 51.4651C181.47 53.5361 183.149 55.2151 185.22 55.2151C187.291 55.2151 188.97 53.5361 188.97 51.4651C188.97 49.394 187.291 47.7151 185.22 47.7151ZM196.759 47.7151C194.688 47.7153 193.009 49.3941 193.009 51.4651C193.009 53.536 194.688 55.2149 196.759 55.2151C198.83 55.2151 200.509 53.5361 200.509 51.4651C200.509 49.394 198.83 47.7151 196.759 47.7151ZM207.475 47.7151C205.404 47.7151 203.725 49.3941 203.725 51.4651C203.725 53.536 205.404 55.215 207.475 55.2151C209.546 55.2151 211.225 53.5361 211.225 51.4651C211.225 49.394 209.546 47.7151 207.475 47.7151Z" fill="#FAFAFA"/>
<path d="M152.901 33.4342C152.613 34.4635 151.794 35.3337 150.725 35.3337H149.349C148.261 35.3337 147.359 34.4484 147.476 33.3664C147.508 33.0633 147.549 32.7746 147.599 32.5003C147.758 31.6717 148.027 30.9283 148.406 30.2702C148.786 29.6121 149.3 29.0028 149.948 28.4422C150.523 27.967 151.019 27.51 151.435 27.0712C151.851 26.6325 152.169 26.1877 152.39 25.7368C152.61 25.2859 152.72 24.8046 152.72 24.2927C152.72 23.659 152.628 23.1411 152.445 22.7389C152.273 22.3368 152.01 22.0382 151.655 21.8432C151.313 21.6361 150.878 21.5325 150.352 21.5325C149.924 21.5325 149.52 21.6361 149.141 21.8432C148.773 22.0504 148.474 22.3733 148.241 22.8121C147.772 23.6733 147.078 24.5121 146.097 24.5121H143.644C142.54 24.5121 141.621 23.5956 141.849 22.5157C142.047 21.5821 142.379 20.773 142.845 20.0884C143.628 18.9428 144.668 18.1081 145.965 17.584C147.274 17.0478 148.737 16.7797 150.352 16.7797C152.139 16.7797 153.674 17.0539 154.959 17.6023C156.244 18.1507 157.229 18.9672 157.915 20.0518C158.6 21.1242 158.942 22.4465 158.942 24.0185C158.942 25.0666 158.741 25.9806 158.337 26.7605C157.945 27.5282 157.413 28.2472 156.74 28.9175C156.079 29.5756 155.339 30.2824 154.519 31.038C153.809 31.6595 153.326 32.2932 153.069 32.9391C153.006 33.0943 152.95 33.2593 152.901 33.4342ZM146.626 40.8908C146.626 40.0133 146.944 39.2821 147.58 38.6972C148.217 38.1001 149.043 37.8015 150.058 37.8015C151.074 37.8015 151.9 38.1001 152.536 38.6972C153.173 39.2821 153.491 40.0133 153.491 40.8908C153.491 41.7682 153.173 42.5055 152.536 43.1026C151.9 43.6876 151.074 43.9801 150.058 43.9801C149.043 43.9801 148.217 43.6876 147.58 43.1026C146.944 42.5055 146.626 41.7682 146.626 40.8908Z" fill="#FAFAFA"/>
<path d="M124.886 48.1154C119.966 43.2336 117 36.9199 117 30.0246C117 14.547 131.946 2 150.382 2C168.819 2 183.764 14.547 183.764 30.0246C183.764 45.5021 168.819 58.0492 150.382 58.0492C143.189 58.0492 136.527 56.139 131.076 52.89M124.886 48.1154L123.079 57.9593C122.908 58.8947 124.03 59.5064 124.723 58.8555L131.076 52.89M124.886 48.1154L123.897 47.0862M131.076 52.89L131.588 53.1892" stroke="#FAFAFA" stroke-width="4" stroke-linecap="round"/>
</svg>
