<svg width="230" height="104" viewBox="0 0 230 104" fill="none" xmlns="http://www.w3.org/2000/svg" role="img" aria-label="Logo AskTrust" focusable="false" aria-hidden="false">
<path d="M24.1673 25.1214C24.1527 25.2284 24.1295 25.334 24.0979 25.4372L14.6244 56.3662C14.367 57.2067 13.591 57.7805 12.7121 57.7805H6.47808C5.08944 57.7805 4.12341 56.4001 4.59907 55.0954L18.1421 17.9496C18.43 17.1601 19.1807 16.6347 20.0211 16.6347H23.0322C24.2441 16.6347 25.1775 17.7039 25.0139 18.9046L24.1673 25.1214ZM33.867 57.7805C32.9887 57.7805 32.2131 57.2074 31.9552 56.3678L22.451 25.4257C22.4216 25.3301 22.3995 25.2325 22.3847 25.1335L21.4594 18.9298C21.2791 17.7211 22.2154 16.6347 23.4375 16.6347H26.5058C27.3449 16.6347 28.0948 17.1585 28.3836 17.9463L42.0026 55.0921C42.4811 56.3973 41.515 57.7805 40.1248 57.7805H33.867ZM29.9966 42.4356C31.1011 42.4356 31.9966 43.3311 31.9966 44.4356V48.0939C31.9966 49.1985 31.1011 50.0939 29.9966 50.0939H13.0507C11.9461 50.0939 11.0507 49.1985 11.0507 48.0939V44.4356C11.0507 43.3311 11.9461 42.4356 13.0507 42.4356H29.9966Z" fill="#FAFAFA"/>
<path d="M61.4386 49.1896C61.4386 48.6621 61.261 48.21 60.9058 47.8332C60.5693 47.4375 59.9711 47.0796 59.1112 46.7593C58.2513 46.4202 57.0456 46.0811 55.4941 45.742C54.0173 45.4217 52.6247 44.9978 51.3161 44.4703C50.0263 43.9428 48.8953 43.3022 47.9233 42.5487C46.9512 41.7951 46.1848 40.9002 45.624 39.864C45.0819 38.8278 44.8108 37.6409 44.8108 36.3033C44.8108 35.0034 45.0819 33.7788 45.624 32.6296C46.1848 31.4615 46.998 30.4348 48.0635 29.5493C49.1477 28.645 50.4656 27.9385 52.0171 27.4298C53.5687 26.9023 55.3352 26.6386 57.3167 26.6386C60.0459 26.6386 62.4013 27.0625 64.3828 27.9103C66.3642 28.7392 67.8877 29.9073 68.9533 31.4144C69.6549 32.3776 70.1295 33.4394 70.3771 34.5998C70.6076 35.6801 69.6842 36.5859 68.5796 36.5859H63.1301C62.0255 36.5859 61.219 35.639 60.7519 34.6381C60.7472 34.6279 60.7424 34.6178 60.7376 34.6077C60.4945 34.0614 60.0926 33.6469 59.5318 33.3643C58.971 33.0629 58.2233 32.9122 57.2886 32.9122C56.6344 32.9122 56.0362 33.0346 55.4941 33.2796C54.9707 33.5245 54.5501 33.8636 54.2323 34.2969C53.9145 34.7302 53.7556 35.2389 53.7556 35.8229C53.7556 36.2374 53.8491 36.6142 54.036 36.9533C54.2416 37.2736 54.5501 37.575 54.9613 37.8576C55.3726 38.1213 55.896 38.3663 56.5316 38.5923C57.1671 38.7996 57.9336 38.988 58.8308 39.1575C60.8684 39.5343 62.7751 40.0712 64.551 40.7683C66.3269 41.4654 67.7662 42.4545 68.8691 43.7356C69.9907 45.0167 70.5515 46.7405 70.5515 48.907C70.5515 50.2635 70.2431 51.5163 69.6262 52.6656C69.0093 53.7959 68.1214 54.7944 66.9624 55.6611C65.8034 56.5088 64.4108 57.1682 62.7845 57.6392C61.1582 58.1102 59.3262 58.3457 57.2886 58.3457C54.3912 58.3457 51.9423 57.8276 49.9422 56.7914C47.942 55.7364 46.4278 54.4176 45.3997 52.8351C44.7985 51.8814 44.3764 50.921 44.1332 49.954C43.8639 48.8827 44.781 47.9745 45.8855 47.9745H50.7679C51.8416 47.9745 52.6443 48.8681 53.104 49.8384C53.18 49.9989 53.2663 50.15 53.363 50.2918C53.793 50.8946 54.3631 51.3374 55.0735 51.6199C55.7838 51.9025 56.6063 52.0438 57.541 52.0438C58.4009 52.0438 59.1112 51.9214 59.672 51.6765C60.2515 51.4316 60.6908 51.1019 60.9899 50.6874C61.289 50.2541 61.4386 49.7548 61.4386 49.1896Z" fill="#FAFAFA"/>
<path d="M82.5155 14.3457C83.62 14.3457 84.5155 15.2411 84.5155 16.3457V55.7805C84.5155 56.8851 83.62 57.7805 82.5155 57.7805H77.066C75.9614 57.7805 75.066 56.8851 75.066 55.7805V16.3457C75.066 15.2411 75.9614 14.3457 77.066 14.3457H82.5155ZM99.6062 27.2038C101.309 27.2038 102.233 29.1961 101.133 30.4958L90.7403 42.7747L85.5497 48.006C84.6644 48.8982 83.1853 48.7623 82.4774 47.7237L80.5327 44.8705C80.0478 44.159 80.0726 43.217 80.5944 42.5321L85.4688 36.1338L91.9905 27.9567C92.3699 27.4809 92.9454 27.2038 93.5541 27.2038H99.6062ZM94.9471 57.7805C94.2349 57.7805 93.5764 57.4017 93.2183 56.7861L86.6076 45.4208C86.0891 44.5294 86.3334 43.3899 87.1717 42.7894L90.9507 40.0821C91.8862 39.4118 93.1929 39.6674 93.8069 40.6407L102.685 54.7134C103.525 56.0451 102.568 57.7805 100.994 57.7805H94.9471Z" fill="#FAFAFA"/>
<path d="M6.48058 84.9812L13.6666 80.4719C14.6279 79.8488 15.217 79.2647 15.4341 78.7195C15.6666 78.1588 15.7829 77.6136 15.7829 77.084C15.7829 76.4454 15.5504 75.8457 15.0852 75.285C14.6356 74.7086 14 74.4205 13.1783 74.4205C12.5736 74.4205 12.062 74.5607 11.6434 74.841C11.2403 75.1058 10.9302 75.4641 10.7131 75.9158C10.5116 76.3675 10.4108 76.8737 10.4108 77.4345C10.4108 78.1354 10.6046 78.8441 10.9922 79.5607C11.3798 80.2772 11.8914 81.0326 12.5271 81.827C13.1783 82.6214 13.8992 83.4937 14.6899 84.4438L27.7573 99.5464C28.8782 100.842 27.958 102.855 26.2449 102.855H22.7828C22.2064 102.855 21.6581 102.606 21.2784 102.173L8.89919 88.042C7.82942 86.6712 6.89919 85.4096 6.10849 84.2569C5.3333 83.1043 4.72864 81.9828 4.29454 80.8924C3.86043 79.8021 3.64337 78.6806 3.64337 77.5279C3.64337 75.7367 4.03097 74.1557 4.80616 72.785C5.59686 71.3987 6.70539 70.3161 8.13175 69.5373C9.57361 68.7429 11.2635 68.3457 13.2015 68.3457C15 68.3457 16.5581 68.7195 17.8759 69.4672C19.2093 70.2149 20.2403 71.2117 20.969 72.4579C21.6976 73.6884 22.062 75.0435 22.062 76.5233C22.062 77.5513 21.8682 78.5248 21.4806 79.4438C21.093 80.3628 20.5581 81.204 19.8759 81.9672C19.2093 82.7304 18.4418 83.4236 17.5736 84.0466L10.0428 89.3247C9.88587 89.4347 9.74403 89.5656 9.63042 89.72C9.39808 90.0357 9.20084 90.3564 9.03872 90.6822C8.85268 91.0716 8.71314 91.4688 8.62012 91.8737C8.5426 92.2787 8.50384 92.7149 8.50384 93.1822C8.50384 93.9921 8.67438 94.7086 9.01547 95.3317C9.35655 95.9392 9.80616 96.4142 10.3643 96.7569C10.9379 97.0996 11.5581 97.2709 12.2248 97.2709C13.4806 97.2709 14.6899 96.9984 15.8527 96.4532C17.031 95.8924 18.0852 95.1058 19.0155 94.0934C19.9457 93.0809 20.6821 91.8737 21.2248 90.4719C21.5455 89.6434 21.7714 88.7659 21.9026 87.8394C22.0574 86.7458 22.9342 85.8457 24.0387 85.8457H26.5969C27.7014 85.8457 28.6061 86.7425 28.521 87.8438C28.4344 88.9642 28.2736 90.0506 28.0387 91.1027C27.6821 92.7538 27.0852 94.2803 26.248 95.6822C25.4263 97.084 24.3178 98.3146 22.9224 99.3737C22.8449 99.4205 22.6976 99.5139 22.4806 99.6541C22.3599 99.7287 22.2587 99.7894 22.1769 99.8361C22.086 99.888 21.996 99.942 21.9106 100.002C20.3266 101.125 18.7647 101.959 17.2248 102.505C15.6434 103.065 13.7984 103.346 11.6899 103.346C9.41082 103.346 7.44182 102.933 5.78291 102.107C4.1395 101.282 2.86818 100.145 1.96895 98.6962C1.06973 97.2476 0.620117 95.5887 0.620117 93.7195C0.620117 92.3955 0.868179 91.2429 1.3643 90.2616C1.86043 89.2647 2.55035 88.3457 3.43407 87.5046C4.31779 86.6635 5.3333 85.8223 6.48058 84.9812Z" fill="#FAFAFA"/>
<path d="M48.9369 61.3457C50.0415 61.3457 50.9369 62.2411 50.9369 63.3457V100.777C50.9369 101.881 50.0415 102.777 48.9369 102.777H42.8815C41.7769 102.777 40.8815 101.881 40.8815 100.777V63.3457C40.8815 62.2411 41.7769 61.3457 42.8815 61.3457H48.9369ZM61.4847 61.3457C62.5893 61.3457 63.4847 62.2411 63.4847 63.3457V67.0571C63.4847 68.1617 62.5893 69.0571 61.4847 69.0571H30.6201C29.5155 69.0571 28.6201 68.1617 28.6201 67.0571V63.3457C28.6201 62.2411 29.5155 61.3457 30.6201 61.3457H61.4847Z" fill="#FAFAFA"/>
<path d="M75.1444 79.614V100.777C75.1444 101.881 74.249 102.777 73.1444 102.777H67.4901C66.3855 102.777 65.4901 101.881 65.4901 100.777V73.988C65.4901 72.8834 66.3855 71.988 67.4901 71.988H72.6727C73.7134 71.988 74.5801 72.7861 74.6659 73.8233L75.1444 79.614ZM83.0513 71.5042C83.8094 71.5946 84.3017 72.2849 84.2869 73.0482L84.1699 79.1136C84.1537 79.9507 83.4269 80.5977 82.5929 80.5246C81.9436 80.4677 81.3992 80.4392 80.96 80.4392C79.8332 80.4392 78.8591 80.572 78.0379 80.8376C77.2357 81.0842 76.5673 81.4636 76.0325 81.9758C75.5169 82.469 75.1349 83.095 74.8866 83.8538C74.7895 84.1752 74.7148 84.5187 74.6622 84.8842C74.5642 85.5661 73.7911 85.9919 73.2139 85.6159C72.9706 85.4575 72.8231 85.1867 72.8274 84.8965C72.8554 83.0115 73.0548 81.2886 73.4256 79.7278C73.8457 78.0205 74.4378 76.5503 75.2017 75.3172C75.9657 74.0652 76.892 73.1072 77.9806 72.4433C79.0692 71.7603 80.2915 71.4189 81.6475 71.4189C82.125 71.4189 82.5929 71.4473 83.0513 71.5042Z" fill="#FAFAFA"/>
<path d="M105.74 95.2929V73.988C105.74 72.8834 106.636 71.988 107.74 71.988H113.424C114.528 71.988 115.424 72.8834 115.424 73.988V100.777C115.424 101.881 114.528 102.777 113.424 102.777H108.209C107.17 102.777 106.304 101.98 106.216 100.944L105.74 95.2929ZM106.603 90.2635C106.665 89.5813 107.204 89.0203 107.889 89.0049C108.596 88.9889 109.182 89.5582 109.145 90.2646C109.062 91.8454 108.825 93.3318 108.433 94.7238C107.937 96.469 107.202 97.9866 106.228 99.2766C105.273 100.567 104.088 101.572 102.675 102.293C101.281 102.995 99.6671 103.346 97.8336 103.346C96.3057 103.346 94.902 103.137 93.6224 102.72C92.3619 102.283 91.2733 101.61 90.3565 100.699C89.4398 99.7698 88.7236 98.5842 88.2079 97.1425C87.7114 95.6817 87.4631 93.9365 87.4631 91.9067V73.988C87.4631 72.8834 88.3585 71.988 89.4631 71.988H95.1174C96.222 71.988 97.1174 72.8834 97.1174 73.988V91.9636C97.1174 92.6465 97.2034 93.2346 97.3753 93.7278C97.5472 94.221 97.7954 94.6384 98.1201 94.9799C98.4448 95.3023 98.8459 95.549 99.3233 95.7197C99.8199 95.8714 100.383 95.9473 101.014 95.9473C102.465 95.9473 103.601 95.6438 104.423 95.0368C105.244 94.4297 105.817 93.6045 106.142 92.5612C106.374 91.8559 106.528 91.0901 106.603 90.2635Z" fill="#FAFAFA"/>
<path d="M136.995 94.1262C136.995 93.595 136.814 93.1397 136.451 92.7603C136.107 92.362 135.496 92.0015 134.618 91.679C133.739 91.3376 132.507 90.9961 130.922 90.6546C129.413 90.3322 127.99 89.9053 126.654 89.3742C125.336 88.843 124.18 88.198 123.187 87.4392C122.194 86.6804 121.411 85.7793 120.838 84.7359C120.284 83.6926 120.007 82.4975 120.007 81.1506C120.007 79.8416 120.284 78.6086 120.838 77.4514C121.411 76.2752 122.242 75.2414 123.33 74.3498C124.438 73.4392 125.785 72.7278 127.37 72.2156C128.955 71.6845 130.76 71.4189 132.784 71.4189C135.573 71.4189 137.979 71.8457 140.003 72.6994C142.028 73.534 143.584 74.7102 144.673 76.2278C145.393 77.2015 145.879 78.2753 146.131 79.4492C146.363 80.5292 145.439 81.4351 144.335 81.4351H138.68C137.576 81.4351 136.768 80.4882 136.3 79.4877C136.293 79.4728 136.286 79.458 136.279 79.4433C136.031 78.8931 135.62 78.4758 135.047 78.1912C134.474 77.8877 133.71 77.7359 132.756 77.7359C132.087 77.7359 131.476 77.8593 130.922 78.1059C130.387 78.3525 129.958 78.6939 129.633 79.1303C129.308 79.5666 129.146 80.0788 129.146 80.6668C129.146 81.0842 129.241 81.4636 129.432 81.8051C129.642 82.1275 129.958 82.4311 130.378 82.7156C130.798 82.9812 131.333 83.2278 131.982 83.4555C132.631 83.6641 133.414 83.8538 134.331 84.0246C136.413 84.404 138.361 84.9446 140.175 85.6465C141.99 86.3484 143.46 87.3443 144.587 88.6343C145.733 89.9243 146.306 91.6601 146.306 93.8416C146.306 95.2075 145.991 96.469 145.361 97.6262C144.73 98.7644 143.823 99.7698 142.639 100.642C141.455 101.496 140.032 102.16 138.371 102.634C136.709 103.109 134.837 103.346 132.756 103.346C129.795 103.346 127.293 102.824 125.25 101.781C123.206 100.718 121.659 99.3904 120.609 97.7969C119.992 96.832 119.559 95.8603 119.311 94.8818C119.04 93.811 119.957 92.9026 121.062 92.9026H126.136C127.209 92.9026 128.013 93.7955 128.473 94.7649C128.553 94.9319 128.643 95.0889 128.745 95.2359C129.184 95.843 129.767 96.2888 130.492 96.5733C131.218 96.8579 132.058 97.0002 133.013 97.0002C133.892 97.0002 134.618 96.8769 135.191 96.6303C135.783 96.3836 136.231 96.0517 136.537 95.6343C136.843 95.198 136.995 94.6953 136.995 94.1262Z" fill="#FAFAFA"/>
<path d="M165.162 71.988C166.266 71.988 167.162 72.8834 167.162 73.988V76.6465C167.162 77.7511 166.266 78.6465 165.162 78.6465H150.483C149.379 78.6465 148.483 77.7511 148.483 76.6465V73.988C148.483 72.8834 149.379 71.988 150.483 71.988H165.162ZM152.408 66.3335C152.408 65.2289 153.303 64.3335 154.408 64.3335H160.062C161.167 64.3335 162.062 65.2289 162.062 66.3335V92.7319C162.062 93.5476 162.158 94.1831 162.349 94.6384C162.54 95.0747 162.865 95.3877 163.323 95.5774C163.8 95.7481 164.431 95.8335 165.214 95.8335C165.768 95.8335 166.226 95.824 166.589 95.8051C167.129 95.7485 167.62 96.1606 167.62 96.7041V101.065C167.62 101.933 167.063 102.714 166.216 102.902C165.832 102.987 165.441 103.059 165.042 103.118C164.144 103.27 163.189 103.346 162.177 103.346C160.114 103.346 158.348 103.023 156.877 102.378C155.426 101.733 154.318 100.718 153.554 99.3335C152.79 97.9487 152.408 96.1465 152.408 93.927V66.3335Z" fill="#FAFAFA"/>
<path d="M120.866 42.5818L116.764 58.8577C116.533 59.7768 117.59 60.4724 118.343 59.8955L134.656 47.3828" stroke="#FAFAFA" stroke-width="4" stroke-linecap="round"/>
<path d="M227.38 45.788C227.38 60.0782 213.449 72.2303 195.5 72.2303C177.551 72.2303 163.62 60.0782 163.62 45.788C163.62 31.4978 177.551 19.3457 195.5 19.3457C213.449 19.3457 227.38 31.4978 227.38 45.788Z" fill="#FAFAFA" stroke="#FAFAFA" stroke-width="4"/>
<path d="M221.355 75.1474L210.976 67.5259L219.873 60.8457L222.921 74.1175C223.129 75.0209 222.102 75.696 221.355 75.1474Z" fill="#FAFAFA"/>
<path d="M219.122 59.1729L225.023 74.886C225.357 75.7733 224.384 76.5832 223.572 76.0943L205.957 65.4906" stroke="#FAFAFA" stroke-width="4" stroke-linecap="round"/>
<circle cx="182.952" cy="45.3699" r="3.76442" fill="#00067D"/>
<circle cx="194.663" cy="45.3699" r="3.76442" fill="#00067D"/>
<circle cx="205.539" cy="45.3699" r="3.76442" fill="#00067D"/>
<path d="M113.62 28.7883C113.62 43.0784 127.551 55.2306 145.5 55.2306C163.449 55.2306 177.38 43.0784 177.38 28.7883C177.38 14.4981 163.449 2.34595 145.5 2.34595C127.551 2.34595 113.62 14.4981 113.62 28.7883Z" fill="#00067D" stroke="#FAFAFA" stroke-width="4"/>
<path d="M120.487 57.2229L130.86 49.2046L121.963 42.1729L118.898 56.2186C118.699 57.1308 119.748 57.7939 120.487 57.2229Z" fill="#00067D"/>
<path d="M146.479 32.3066C146.186 33.3512 145.355 34.2344 144.271 34.2344H142.874C141.769 34.2344 140.854 33.3359 140.972 32.2377C141.006 31.9301 141.047 31.6371 141.097 31.3588C141.259 30.5177 141.532 29.7633 141.917 29.0954C142.302 28.4275 142.824 27.8091 143.482 27.2402C144.066 26.7578 144.569 26.294 144.991 25.8487C145.413 25.4035 145.736 24.952 145.96 24.4944C146.183 24.0368 146.295 23.5483 146.295 23.0288C146.295 22.3856 146.202 21.86 146.016 21.4518C145.842 21.0437 145.575 20.7407 145.214 20.5428C144.867 20.3325 144.426 20.2274 143.892 20.2274C143.457 20.2274 143.047 20.3325 142.662 20.5428C142.29 20.753 141.985 21.0808 141.749 21.5261C141.273 22.4001 140.569 23.2514 139.574 23.2514H137.084C135.963 23.2514 135.03 22.3213 135.262 21.2252C135.463 20.2777 135.8 19.4566 136.272 18.7618C137.067 17.5992 138.123 16.7519 139.439 16.2201C140.768 15.6759 142.252 15.4038 143.892 15.4038C145.705 15.4038 147.264 15.6821 148.568 16.2387C149.872 16.7952 150.872 17.6239 151.567 18.7247C152.263 19.8131 152.61 21.155 152.61 22.7505C152.61 23.8142 152.405 24.7418 151.996 25.5333C151.598 26.3125 151.058 27.0423 150.375 27.7225C149.704 28.3904 148.953 29.1077 148.121 29.8746C147.4 30.5054 146.91 31.1485 146.649 31.804C146.585 31.9615 146.528 32.129 146.479 32.3066ZM140.11 39.8742C140.11 38.9837 140.433 38.2416 141.079 37.648C141.725 37.0419 142.563 36.7389 143.594 36.7389C144.625 36.7389 145.463 37.0419 146.109 37.648C146.755 38.2416 147.077 38.9837 147.077 39.8742C147.077 40.7648 146.755 41.513 146.109 42.1191C145.463 42.7127 144.625 43.0096 143.594 43.0096C142.563 43.0096 141.725 42.7127 141.079 42.1191C140.433 41.513 140.11 40.7648 140.11 39.8742Z" fill="#FAFAFA"/>
</svg>
