<svg width="229" height="103" viewBox="0 0 229 103" fill="none" xmlns="http://www.w3.org/2000/svg">
<path d="M23.5472 24.7757C23.5326 24.8827 23.5094 24.9883 23.4778 25.0915L14.0043 56.0205C13.7468 56.861 12.9709 57.4348 12.092 57.4348H5.85796C4.46932 57.4348 3.50329 56.0544 3.97895 54.7497L17.522 17.6039C17.8098 16.8144 18.5606 16.289 19.401 16.289H22.4121C23.6239 16.289 24.5573 17.3582 24.3938 18.5589L23.5472 24.7757ZM33.2469 57.4348C32.3685 57.4348 31.593 56.8617 31.3351 56.0221L21.8309 25.08C21.8015 24.9844 21.7794 24.8867 21.7646 24.7878L20.8393 18.5841C20.659 17.3754 21.5953 16.289 22.8174 16.289H25.8857C26.7248 16.289 27.4746 16.8128 27.7635 17.6006L41.3824 54.7464C41.861 56.0516 40.8948 57.4348 39.5047 57.4348H33.2469ZM29.3765 42.0899C30.481 42.0899 31.3765 42.9853 31.3765 44.0899V47.7482C31.3765 48.8528 30.481 49.7482 29.3765 49.7482H12.4306C11.326 49.7482 10.4306 48.8528 10.4306 47.7482V44.0899C10.4306 42.9853 11.326 42.0899 12.4306 42.0899H29.3765Z" fill="#00067D"/>
<path d="M60.8184 48.8439C60.8184 48.3164 60.6409 47.8643 60.2857 47.4875C59.9492 47.0918 59.351 46.7339 58.4911 46.4136C57.6312 46.0745 56.4255 45.7354 54.874 45.3963C53.3972 45.076 52.0045 44.6521 50.696 44.1246C49.4062 43.5971 48.2752 42.9565 47.3032 42.203C46.3311 41.4494 45.5647 40.5545 45.0039 39.5183C44.4618 38.4821 44.1907 37.2952 44.1907 35.9576C44.1907 34.6577 44.4618 33.4331 45.0039 32.2839C45.5647 31.1158 46.3778 30.0891 47.4434 29.2036C48.5276 28.2993 49.8455 27.5928 51.397 27.0841C52.9485 26.5566 54.7151 26.2929 56.6966 26.2929C59.4258 26.2929 61.7811 26.7168 63.7626 27.5645C65.7441 28.3935 67.2676 29.5616 68.3332 31.0687C69.0348 32.0319 69.5094 33.0937 69.757 34.2541C69.9875 35.3343 69.064 36.2402 67.9595 36.2402H62.51C61.4054 36.2402 60.5988 35.2933 60.1318 34.2924C60.127 34.2822 60.1223 34.2721 60.1174 34.262C59.8744 33.7157 59.4725 33.3012 58.9117 33.0186C58.3509 32.7172 57.6032 32.5665 56.6685 32.5665C56.0143 32.5665 55.4161 32.6889 54.874 32.9338C54.3505 33.1788 53.9299 33.5179 53.6122 33.9512C53.2944 34.3845 53.1355 34.8932 53.1355 35.4772C53.1355 35.8917 53.2289 36.2685 53.4159 36.6076C53.6215 36.9279 53.9299 37.2293 54.3412 37.5119C54.7525 37.7756 55.2759 38.0206 55.9114 38.2466C56.547 38.4539 57.3134 38.6423 58.2107 38.8118C60.2483 39.1886 62.155 39.7255 63.9309 40.4226C65.7067 41.1197 67.1461 42.1088 68.249 43.3899C69.3706 44.6709 69.9314 46.3948 69.9314 48.5613C69.9314 49.9178 69.623 51.1706 69.0061 52.3198C68.3892 53.4502 67.5013 54.4487 66.3423 55.3153C65.1833 56.1631 63.7907 56.8225 62.1644 57.2935C60.538 57.7645 58.7061 58 56.6685 58C53.7711 58 51.3222 57.4819 49.322 56.4457C47.3219 55.3907 45.8077 54.0719 44.7796 52.4894C44.1784 51.5357 43.7562 50.5753 43.5131 49.6083C43.2438 48.537 44.1608 47.6288 45.2654 47.6288H50.1478C51.2215 47.6288 52.0242 48.5224 52.4838 49.4927C52.5599 49.6532 52.6462 49.8043 52.7429 49.946C53.1729 50.5489 53.743 50.9916 54.4534 51.2742C55.1637 51.5568 55.9862 51.6981 56.9209 51.6981C57.7808 51.6981 58.4911 51.5757 59.0519 51.3308C59.6314 51.0858 60.0707 50.7562 60.3698 50.3417C60.6689 49.9084 60.8184 49.4091 60.8184 48.8439Z" fill="#00067D"/>
<path d="M81.8953 14C82.9999 14 83.8953 14.8954 83.8953 16V55.4348C83.8953 56.5394 82.9999 57.4348 81.8953 57.4348H76.4459C75.3413 57.4348 74.4459 56.5394 74.4459 55.4348V16C74.4459 14.8954 75.3413 14 76.4459 14H81.8953ZM98.9861 26.8581C100.689 26.8581 101.613 28.8503 100.513 30.1501L90.1202 42.429L84.9296 47.6603C84.0443 48.5525 82.5652 48.4166 81.8573 47.378L79.9126 44.5248C79.4276 43.8133 79.4525 42.8713 79.9743 42.1864L84.8487 35.7881L91.3703 27.611C91.7498 27.1352 92.3253 26.8581 92.9339 26.8581H98.9861ZM94.327 57.4348C93.6148 57.4348 92.9563 57.056 92.5982 56.4404L85.9875 45.0751C85.469 44.1837 85.7133 43.0442 86.5515 42.4437L90.3306 39.7363C91.2661 39.0661 92.5728 39.3217 93.1868 40.295L102.065 54.3677C102.905 55.6994 101.948 57.4348 100.373 57.4348H94.327Z" fill="#00067D"/>
<path d="M5.86047 84.6355L13.0465 80.1262C14.0078 79.5031 14.5969 78.919 14.814 78.3738C15.0465 77.8131 15.1628 77.2679 15.1628 76.7383C15.1628 76.0997 14.9302 75.5 14.4651 74.9393C14.0155 74.3629 13.3798 74.0748 12.5581 74.0748C11.9535 74.0748 11.4419 74.215 11.0233 74.4953C10.6202 74.7601 10.3101 75.1184 10.093 75.5701C9.89147 76.0218 9.7907 76.528 9.7907 77.0888C9.7907 77.7897 9.9845 78.4984 10.3721 79.215C10.7597 79.9315 11.2713 80.6869 11.907 81.4813C12.5581 82.2757 13.2791 83.148 14.0698 84.0981L27.1372 99.2007C28.2581 100.496 27.3379 102.509 25.6248 102.509H22.1626C21.5863 102.509 21.038 102.261 20.6583 101.827L8.27907 87.6963C7.2093 86.3255 6.27907 85.0639 5.48837 83.9112C4.71318 82.7586 4.10853 81.6371 3.67442 80.5467C3.24031 79.4564 3.02326 78.3349 3.02326 77.1822C3.02326 75.391 3.41085 73.81 4.18605 72.4393C4.97674 71.053 6.08527 69.9704 7.51163 69.1916C8.95349 68.3972 10.6434 68 12.5814 68C14.3798 68 15.938 68.3738 17.2558 69.1215C18.5891 69.8692 19.6202 70.866 20.3488 72.1121C21.0775 73.3427 21.4419 74.6978 21.4419 76.1776C21.4419 77.2056 21.2481 78.1791 20.8605 79.0981C20.4729 80.0171 19.938 80.8583 19.2558 81.6215C18.5891 82.3847 17.8217 83.0779 16.9535 83.7009L9.42272 88.979C9.26575 89.089 9.12392 89.2199 9.0103 89.3743C8.77796 89.69 8.58073 90.0107 8.4186 90.3364C8.23256 90.7259 8.09302 91.1231 8 91.528C7.92248 91.933 7.88372 92.3692 7.88372 92.8364C7.88372 93.6464 8.05426 94.3629 8.39535 94.986C8.73643 95.5935 9.18605 96.0685 9.74419 96.4112C10.3178 96.7539 10.938 96.9252 11.6047 96.9252C12.8605 96.9252 14.0698 96.6526 15.2326 96.1075C16.4109 95.5467 17.4651 94.7601 18.3953 93.7477C19.3256 92.7352 20.062 91.528 20.6047 90.1262C20.9254 89.2977 21.1513 88.4202 21.2824 87.4937C21.4373 86.4001 22.314 85.5 23.4186 85.5H25.9767C27.0813 85.5 27.986 86.3968 27.9009 87.4981C27.8143 88.6185 27.6535 89.7048 27.4186 90.757C27.062 92.4081 26.4651 93.9346 25.6279 95.3364C24.8062 96.7383 23.6977 97.9688 22.3023 99.028C22.2248 99.0748 22.0775 99.1682 21.8605 99.3084C21.7398 99.383 21.6385 99.4437 21.5568 99.4904C21.4659 99.5423 21.3759 99.5963 21.2905 99.6568C19.7065 100.779 18.1445 101.613 16.6047 102.159C15.0233 102.72 13.1783 103 11.0698 103C8.7907 103 6.82171 102.587 5.16279 101.762C3.51938 100.936 2.24806 99.7991 1.34884 98.3505C0.449612 96.9019 0 95.243 0 93.3738C0 92.0498 0.248062 90.8972 0.744186 89.9159C1.24031 88.919 1.93023 88 2.81395 87.1589C3.69767 86.3178 4.71318 85.4766 5.86047 84.6355Z" fill="#00067D"/>
<path d="M48.3168 61C49.4213 61 50.3168 61.8954 50.3168 63V100.431C50.3168 101.535 49.4213 102.431 48.3168 102.431H42.2613C41.1568 102.431 40.2613 101.535 40.2613 100.431V63C40.2613 61.8954 41.1568 61 42.2613 61H48.3168ZM60.8646 61C61.9692 61 62.8646 61.8954 62.8646 63V66.7114C62.8646 67.816 61.9692 68.7114 60.8646 68.7114H30C28.8954 68.7114 28 67.816 28 66.7114V63C28 61.8954 28.8954 61 30 61H60.8646Z" fill="#00067D"/>
<path d="M74.5243 79.2683V100.431C74.5243 101.535 73.6289 102.431 72.5243 102.431H66.87C65.7654 102.431 64.87 101.535 64.87 100.431V73.6423C64.87 72.5377 65.7654 71.6423 66.87 71.6423H72.0525C73.0932 71.6423 73.96 72.4404 74.0457 73.4775L74.5243 79.2683ZM82.4312 71.1585C83.1892 71.2489 83.6816 71.9392 83.6668 72.7025L83.5498 78.7679C83.5336 79.605 82.8068 80.252 81.9728 80.1789C81.3234 80.122 80.7791 80.0935 80.3399 80.0935C79.213 80.0935 78.239 80.2263 77.4178 80.4919C76.6156 80.7385 75.9472 81.1179 75.4124 81.6301C74.8967 82.1233 74.5148 82.7493 74.2665 83.5081C74.1694 83.8295 74.0946 84.173 74.0421 84.5385C73.9441 85.2204 73.171 85.6462 72.5938 85.2702C72.3505 85.1118 72.203 84.841 72.2073 84.5508C72.2353 82.6658 72.4347 80.9429 72.8054 79.3821C73.2256 77.6748 73.8177 76.2046 74.5816 74.9715C75.3456 73.7195 76.2718 72.7615 77.3605 72.0976C78.4491 71.4146 79.6714 71.0732 81.0274 71.0732C81.5049 71.0732 81.9728 71.1016 82.4312 71.1585Z" fill="#00067D"/>
<path d="M105.12 94.9472V73.6423C105.12 72.5377 106.016 71.6423 107.12 71.6423H112.803C113.908 71.6423 114.803 72.5377 114.803 73.6423V100.431C114.803 101.535 113.908 102.431 112.803 102.431H107.589C106.55 102.431 105.684 101.635 105.596 100.599L105.12 94.9472ZM105.983 89.9178C106.045 89.2356 106.584 88.6746 107.269 88.6592C107.976 88.6432 108.562 89.2125 108.525 89.9189C108.442 91.4997 108.205 92.9861 107.813 94.378C107.317 96.1233 106.581 97.6409 105.607 98.9309C104.652 100.221 103.468 101.226 102.055 101.947C100.661 102.649 99.047 103 97.2135 103C95.6856 103 94.2819 102.791 93.0023 102.374C91.7418 101.938 90.6531 101.264 89.7364 100.354C88.8197 99.4241 88.1035 98.2385 87.5878 96.7967C87.0912 95.336 86.843 93.5908 86.843 91.561V73.6423C86.843 72.5377 87.7384 71.6423 88.843 71.6423H94.4973C95.6019 71.6423 96.4973 72.5377 96.4973 73.6423V91.6179C96.4973 92.3008 96.5833 92.8889 96.7552 93.3821C96.927 93.8753 97.1753 94.2927 97.5 94.6341C97.8247 94.9566 98.2258 95.2033 98.7032 95.374C99.1998 95.5257 99.7632 95.6016 100.393 95.6016C101.845 95.6016 102.981 95.2981 103.803 94.6911C104.624 94.084 105.197 93.2588 105.521 92.2154C105.754 91.5102 105.908 90.7444 105.983 89.9178Z" fill="#00067D"/>
<path d="M136.375 93.7805C136.375 93.2493 136.194 92.794 135.831 92.4146C135.487 92.0163 134.876 91.6558 133.998 91.3333C133.119 90.9919 131.887 90.6504 130.302 90.3089C128.793 89.9865 127.37 89.5596 126.033 89.0285C124.716 88.4973 123.56 87.8523 122.567 87.0935C121.574 86.3347 120.791 85.4336 120.218 84.3902C119.664 83.3469 119.387 82.1518 119.387 80.8049C119.387 79.4959 119.664 78.2629 120.218 77.1057C120.791 75.9295 121.622 74.8957 122.71 74.0041C123.818 73.0935 125.164 72.3821 126.75 71.8699C128.335 71.3388 130.14 71.0732 132.164 71.0732C134.952 71.0732 137.359 71.5 139.383 72.3537C141.408 73.1883 142.964 74.3645 144.053 75.8821C144.773 76.8558 145.259 77.9296 145.511 79.1035C145.743 80.1835 144.819 81.0894 143.715 81.0894H138.06C136.956 81.0894 136.148 80.1425 135.68 79.142C135.673 79.1271 135.666 79.1123 135.659 79.0976C135.411 78.5474 135 78.1301 134.427 77.8455C133.854 77.542 133.09 77.3902 132.135 77.3902C131.467 77.3902 130.856 77.5135 130.302 77.7602C129.767 78.0068 129.337 78.3482 129.013 78.7846C128.688 79.2209 128.526 79.7331 128.526 80.3211C128.526 80.7385 128.621 81.1179 128.812 81.4594C129.022 81.7818 129.337 82.0854 129.758 82.3699C130.178 82.6355 130.713 82.8821 131.362 83.1098C132.011 83.3184 132.794 83.5081 133.711 83.6789C135.793 84.0583 137.741 84.5989 139.555 85.3008C141.37 86.0027 142.84 86.9986 143.967 88.2886C145.113 89.5786 145.686 91.3144 145.686 93.4959C145.686 94.8618 145.371 96.1233 144.741 97.2805C144.11 98.4187 143.203 99.4241 142.019 100.297C140.835 101.15 139.412 101.814 137.75 102.289C136.089 102.763 134.217 103 132.135 103C129.175 103 126.673 102.478 124.63 101.435C122.586 100.373 121.039 99.0447 119.989 97.4512C119.372 96.4863 118.939 95.5146 118.691 94.5361C118.42 93.4653 119.337 92.5569 120.442 92.5569H125.516C126.589 92.5569 127.393 93.4498 127.853 94.4192C127.932 94.5862 128.023 94.7432 128.125 94.8902C128.564 95.4973 129.146 95.9431 129.872 96.2276C130.598 96.5122 131.438 96.6545 132.393 96.6545C133.272 96.6545 133.998 96.5312 134.57 96.2846C135.163 96.0379 135.611 95.706 135.917 95.2886C136.223 94.8523 136.375 94.3496 136.375 93.7805Z" fill="#00067D"/>
<path d="M164.542 71.6423C165.646 71.6423 166.542 72.5377 166.542 73.6423V76.3008C166.542 77.4054 165.646 78.3008 164.542 78.3008H149.863C148.759 78.3008 147.863 77.4054 147.863 76.3008V73.6423C147.863 72.5377 148.759 71.6423 149.863 71.6423H164.542ZM151.788 65.9878C151.788 64.8832 152.683 63.9878 153.788 63.9878H159.442C160.547 63.9878 161.442 64.8832 161.442 65.9878V92.3862C161.442 93.2019 161.538 93.8374 161.729 94.2927C161.92 94.729 162.244 95.042 162.703 95.2317C163.18 95.4024 163.811 95.4878 164.594 95.4878C165.147 95.4878 165.606 95.4783 165.969 95.4594C166.509 95.4028 167 95.8149 167 96.3584V100.72C167 101.587 166.443 102.368 165.596 102.556C165.212 102.641 164.821 102.713 164.422 102.772C163.524 102.924 162.569 103 161.557 103C159.494 103 157.728 102.678 156.257 102.033C154.806 101.388 153.698 100.373 152.934 98.9878C152.17 97.603 151.788 95.8008 151.788 93.5813V65.9878Z" fill="#00067D"/>
<path d="M120.245 42.2357L116.144 58.5117C115.912 59.4308 116.97 60.1264 117.722 59.5495L134.036 47.0368" stroke="#00067D" stroke-width="4" stroke-linecap="round"/>
<path d="M194.88 19C212.829 19 226.76 31.1522 226.76 45.4424C226.76 59.7325 212.829 71.8847 194.88 71.8848C176.931 71.8848 163 59.7325 163 45.4424C163 31.1522 176.931 19 194.88 19Z" fill="#00067D" stroke="#00067D" stroke-width="4"/>
<path d="M220.735 74.8017L210.356 67.1802L219.253 60.5L222.302 73.7718C222.509 74.6752 221.482 75.3503 220.735 74.8017Z" fill="#00067D"/>
<path d="M218.502 58.8269L224.403 74.5401C224.736 75.4274 223.763 76.2372 222.951 75.7484L205.337 65.1446" stroke="#00067D" stroke-width="4" stroke-linecap="round"/>
<circle cx="182.332" cy="45.0241" r="3.76442" fill="#FAFAFA"/>
<circle cx="194.043" cy="45.0241" r="3.76442" fill="#FAFAFA"/>
<circle cx="204.919" cy="45.0241" r="3.76442" fill="#FAFAFA"/>
<path d="M144.88 2C126.931 2.00003 113 14.1522 113 28.4424C113 42.7325 126.931 54.8847 144.88 54.8848C162.828 54.8848 176.759 42.7325 176.76 28.4424C176.76 14.1522 162.828 2 144.88 2Z" fill="#FAFAFA" stroke="#00067D" stroke-width="4"/>
<path d="M119.867 56.877L130.24 48.8587L121.343 41.8269L118.278 55.8726C118.079 56.7848 119.128 57.448 119.867 56.877Z" fill="#FAFAFA" stroke="#FAFAFA"/>
<path d="M145.858 31.9605C145.566 33.0051 144.735 33.8883 143.651 33.8883H142.254C141.149 33.8883 140.234 32.9898 140.352 31.8916C140.386 31.584 140.427 31.291 140.477 31.0127C140.639 30.1716 140.912 29.4172 141.297 28.7493C141.682 28.0814 142.204 27.463 142.862 26.8941C143.446 26.4117 143.949 25.9479 144.371 25.5026C144.793 25.0574 145.116 24.6059 145.34 24.1483C145.563 23.6907 145.675 23.2022 145.675 22.6827C145.675 22.0395 145.582 21.5139 145.395 21.1057C145.222 20.6976 144.955 20.3946 144.594 20.1967C144.247 19.9864 143.806 19.8813 143.272 19.8813C142.837 19.8813 142.427 19.9864 142.042 20.1967C141.67 20.4069 141.365 20.7347 141.129 21.18C140.653 22.054 139.949 22.9053 138.953 22.9053H136.464C135.343 22.9053 134.41 21.9752 134.642 20.8791C134.843 19.9316 135.18 19.1105 135.652 18.4157C136.447 17.2531 137.503 16.4058 138.819 15.874C140.148 15.3298 141.632 15.0577 143.272 15.0577C145.085 15.0577 146.644 15.336 147.948 15.8926C149.252 16.4491 150.251 17.2778 150.947 18.3786C151.642 19.467 151.99 20.8089 151.99 22.4044C151.99 23.4681 151.785 24.3957 151.375 25.1872C150.978 25.9664 150.438 26.6962 149.755 27.3764C149.084 28.0443 148.333 28.7616 147.501 29.5285C146.78 30.1593 146.29 30.8024 146.029 31.4579C145.965 31.6154 145.908 31.7829 145.858 31.9605ZM139.49 39.5281C139.49 38.6376 139.813 37.8955 140.459 37.3019C141.105 36.6958 141.943 36.3928 142.974 36.3928C144.004 36.3928 144.843 36.6958 145.489 37.3019C146.134 37.8955 146.457 38.6376 146.457 39.5281C146.457 40.4187 146.134 41.1669 145.489 41.773C144.843 42.3666 144.004 42.6635 142.974 42.6635C141.943 42.6635 141.105 42.3666 140.459 41.773C139.813 41.1669 139.49 40.4187 139.49 39.5281Z" fill="#00067D"/>
</svg>
