<svg width="847" height="717" viewBox="0 0 847 717" fill="none" xmlns="http://www.w3.org/2000/svg">
<g filter="url(#filter0_d_81_1917)">
<path d="M54.5954 391.916C-46.8586 565.896 180.157 656.378 306.346 679.872H638.558C918.386 679.872 791.569 391.916 684.914 313.331C599.59 250.463 556.652 150.193 545.848 107.917C211.562 -127.65 181.413 174.441 54.5954 391.916Z" fill="#FFEEE2"/>
<path d="M250.79 338.409L339.948 327.505L330.217 227.602L240.962 237.512L242.176 245.265L244.841 244.173C246.603 244.074 247.393 245.381 247.64 247.397C247.645 247.44 247.651 247.485 247.655 247.528C247.853 249.565 247.443 251.473 245.705 251.903L242.341 251.667L243.026 258.696C243.026 258.696 248.947 257.129 249.219 261.48C249.219 261.48 248.961 265.505 243.645 265.057L244.217 270.919C244.217 270.919 250.13 269.055 250.46 273.56C250.739 277.385 247.298 277.665 244.884 277.779L245.486 283.964C245.486 283.964 251.374 282.567 251.291 287.178C251.208 291.789 246.165 290.929 246.165 290.929L246.932 298.804C246.932 298.804 252.375 296.05 252.832 300.745C253.289 305.44 248.91 305.093 247.508 304.719L248.092 310.705C248.092 310.705 253.644 307.964 253.903 313.994C254.098 318.52 248.672 316.674 248.672 316.674L249.484 325.002C249.484 325.002 254.933 322.322 255.37 326.812C255.681 330.006 252.342 331.533 249.97 330L250.79 338.409Z" fill="#F5F5F5"/>
<path d="M317.697 220.329L264.247 222.569L264.779 239.447L318.229 237.207L317.697 220.329Z" fill="#E0E0E0"/>
<path d="M319.283 253.87C319.286 253.926 318.504 254.034 317.088 254.184C315.552 254.326 313.53 254.515 311.088 254.741C306.019 255.176 299.014 255.722 291.275 256.274C283.532 256.828 276.522 257.282 271.445 257.572C268.998 257.694 266.972 257.796 265.431 257.873C264.01 257.926 263.223 257.929 263.22 257.875C263.217 257.819 263.998 257.711 265.414 257.561C266.95 257.419 268.972 257.23 271.414 257.004C276.483 256.569 283.489 256.023 291.232 255.47C298.971 254.917 305.982 254.461 311.057 254.172C313.504 254.05 315.53 253.947 317.071 253.87C318.492 253.819 319.279 253.816 319.283 253.87Z" fill="#E0E0E0"/>
<path d="M321.416 266.396C321.418 266.452 320.636 266.56 319.22 266.71C317.684 266.853 315.662 267.041 313.22 267.267C308.151 267.702 301.146 268.248 293.407 268.8C285.664 269.354 278.654 269.809 273.577 270.098C271.13 270.22 269.104 270.322 267.563 270.399C266.142 270.452 265.355 270.457 265.352 270.401C265.349 270.345 266.13 270.237 267.546 270.087C269.082 269.945 271.105 269.756 273.546 269.53C278.615 269.095 285.621 268.549 293.364 267.996C301.103 267.443 308.112 266.987 313.189 266.698C315.636 266.576 317.662 266.474 319.203 266.396C320.626 266.344 321.413 266.341 321.416 266.396Z" fill="#E0E0E0"/>
<path d="M322.192 279.258C322.195 279.314 321.413 279.422 319.997 279.572C318.459 279.714 316.438 279.903 313.996 280.129C308.928 280.564 301.923 281.11 294.183 281.662C286.441 282.214 279.43 282.67 274.354 282.96C271.906 283.082 269.88 283.184 268.34 283.261C266.918 283.314 266.131 283.317 266.128 283.263C266.126 283.207 266.906 283.099 268.322 282.949C269.859 282.807 271.881 282.618 274.323 282.392C279.391 281.957 286.398 281.411 294.14 280.858C301.88 280.305 308.889 279.849 313.965 279.56C316.413 279.438 318.439 279.335 319.979 279.258C321.401 279.206 322.188 279.202 322.192 279.258Z" fill="#E0E0E0"/>
<path d="M323.549 292.118C323.552 292.174 322.77 292.282 321.354 292.432C319.817 292.575 317.795 292.763 315.353 292.989C310.285 293.424 303.28 293.97 295.54 294.522C287.798 295.076 280.787 295.531 275.711 295.82C273.264 295.942 271.237 296.044 269.697 296.122C268.275 296.174 267.488 296.177 267.486 296.123C267.483 296.067 268.263 295.959 269.679 295.809C271.216 295.667 273.238 295.478 275.68 295.252C280.749 294.818 287.755 294.272 295.497 293.718C303.237 293.166 310.247 292.709 315.323 292.42C317.77 292.298 319.796 292.196 321.337 292.118C322.758 292.066 323.546 292.063 323.549 292.118Z" fill="#E0E0E0"/>
<path d="M326.65 305.976C326.653 306.032 325.871 306.14 324.455 306.29C322.919 306.433 320.897 306.621 318.455 306.847C313.386 307.282 306.381 307.828 298.641 308.382C290.899 308.934 283.889 309.39 278.812 309.68C276.365 309.802 274.339 309.904 272.798 309.981C271.377 310.035 270.59 310.037 270.587 309.983C270.584 309.927 271.366 309.819 272.781 309.669C274.317 309.526 276.339 309.338 278.781 309.112C283.85 308.677 290.856 308.131 298.599 307.577C306.338 307.025 313.349 306.569 318.424 306.28C320.871 306.157 322.897 306.055 324.438 305.978C325.861 305.924 326.648 305.921 326.65 305.976Z" fill="#E0E0E0"/>
<path d="M310.01 69.4221L309.448 172.846H396.598L398.027 69.4221L391.214 69.9465L391.856 73.1237C391.744 75.1546 390.53 75.9141 388.767 75.9729C388.728 75.9745 388.69 75.9745 388.652 75.9745C386.875 75.976 385.278 75.2923 385.101 73.2521L385.68 69.4221H379.548C379.548 69.4221 380.237 76.3844 376.459 76.2111C376.459 76.2111 373.021 75.4656 373.999 69.4221H368.887C368.887 69.4221 369.832 76.4091 365.915 76.2838C362.588 76.1771 362.732 72.2018 362.903 69.4221H357.509C357.509 69.4221 358.055 76.3271 354.091 75.7177C350.129 75.1082 351.432 69.4221 351.432 69.4221H344.562C344.562 69.4221 346.327 75.9683 342.232 75.9683C338.137 75.9683 338.924 70.986 339.403 69.4221H334.18C334.18 69.4221 335.92 76.0936 330.699 75.7177C326.779 75.4346 328.974 69.4221 328.974 69.4221H321.709C321.709 69.4221 323.41 75.9683 319.494 75.9683C316.708 75.9683 315.765 71.9697 317.35 69.4221H310.01Z" fill="#FAFAFA"/>
<path d="M329.401 54.642L294.761 83.2143L301.541 94.153L336.181 65.5806L329.401 54.642Z" fill="#EBEBEB"/>
<path d="M407.07 149.315L372.43 177.887L379.21 188.826L413.85 160.254L407.07 149.315Z" fill="#EBEBEB"/>
<path d="M388.783 96.739C388.783 96.7669 388.548 96.7947 388.101 96.8195C387.575 96.8396 386.931 96.8643 386.149 96.8953C384.348 96.9277 381.921 96.9711 378.97 97.0236C372.909 97.0963 364.535 97.1412 355.287 97.1412C346.036 97.1412 337.66 97.0963 331.6 97.0236C328.648 96.9711 326.222 96.9277 324.422 96.8953C323.641 96.8643 322.996 96.8396 322.471 96.8195C322.024 96.7932 321.791 96.7653 321.791 96.739C321.791 96.7112 322.025 96.6849 322.471 96.6586C322.998 96.6385 323.641 96.6137 324.422 96.5828C326.222 96.5503 328.65 96.507 331.6 96.4544C337.662 96.3817 346.036 96.3369 355.287 96.3369C364.535 96.3369 372.909 96.3817 378.97 96.4544C381.921 96.507 384.347 96.5503 386.149 96.5828C386.93 96.6137 387.575 96.6385 388.101 96.6586C388.548 96.6833 388.783 96.7112 388.783 96.739Z" fill="#E0E0E0"/>
<path d="M387.237 115.346C387.237 115.374 387.013 115.4 386.588 115.428C386.081 115.448 385.465 115.473 384.725 115.504C382.998 115.536 380.684 115.579 377.875 115.632C372.09 115.705 364.099 115.75 355.273 115.75C346.445 115.75 338.453 115.705 332.668 115.632C329.859 115.579 327.546 115.536 325.818 115.504C325.076 115.473 324.462 115.448 323.955 115.428C323.529 115.401 323.306 115.374 323.306 115.346C323.306 115.318 323.53 115.292 323.955 115.265C324.462 115.245 325.076 115.22 325.818 115.19C327.545 115.157 329.859 115.114 332.668 115.061C338.453 114.988 346.445 114.944 355.273 114.944C364.099 114.944 372.09 114.988 377.875 115.061C380.684 115.114 382.998 115.157 384.725 115.19C385.467 115.219 386.081 115.244 386.588 115.265C387.013 115.292 387.237 115.318 387.237 115.346Z" fill="#E0E0E0"/>
<path d="M356.801 133.308C356.801 133.419 355.011 133.519 352.117 133.592C349.223 133.665 345.226 133.71 340.81 133.71C336.393 133.71 332.396 133.665 329.501 133.592C326.608 133.519 324.817 133.419 324.817 133.308C324.817 133.196 326.608 133.096 329.501 133.023C332.395 132.95 336.393 132.905 340.81 132.905C345.226 132.905 349.223 132.95 352.117 133.023C355.011 133.096 356.801 133.196 356.801 133.308Z" fill="#E0E0E0"/>
<path d="M817.791 679.675C817.791 679.898 693.492 680.078 540.196 680.078C386.847 680.078 262.574 679.897 262.574 679.675C262.574 679.454 386.847 679.273 540.196 679.273C693.492 679.272 817.791 679.453 817.791 679.675Z" fill="#C1C4F4"/>
<path d="M702.693 619.686C700.318 623.6 695.701 622.304 693.561 619.915C691.421 617.527 690.516 614.065 689.692 610.764C687.811 603.222 685.914 595.31 687.312 587.628C687.731 585.333 688.475 583.042 689.873 581.339C691.272 579.636 693.423 578.621 695.39 579.221C697.718 579.93 699.165 582.561 700.209 585.062C703.283 592.416 704.909 600.566 704.933 608.73C704.947 612.54 704.556 616.539 702.693 619.686Z" fill="#636CE3"/>
<path opacity="0.2" d="M702.693 619.686C700.318 623.6 695.701 622.304 693.561 619.915C691.421 617.527 690.516 614.065 689.692 610.764C687.811 603.222 685.914 595.31 687.312 587.628C687.731 585.333 688.475 583.042 689.873 581.339C691.272 579.636 693.423 578.621 695.39 579.221C697.718 579.93 699.165 582.561 700.209 585.062C703.283 592.416 704.909 600.566 704.933 608.73C704.947 612.54 704.556 616.539 702.693 619.686Z" fill="#0D0D0E"/>
<path d="M693.794 639.503C689.91 637.19 685.337 636.89 681.025 637.713C678.708 638.155 676.293 638.955 674.717 640.961C673.14 642.969 672.843 646.501 674.653 648.227C675.73 649.254 677.233 649.409 678.63 649.39C682.007 649.345 685.752 648.658 688.448 651.002C689.986 652.338 691.011 654.561 692.851 655.218C694.65 655.862 696.681 654.637 697.635 652.762C698.59 650.889 698.62 648.545 698.177 646.434C698.177 646.434 697.707 641.831 693.794 639.503Z" fill="#636CE3"/>
<path d="M709.215 625.301C706.636 621.772 706.147 616.622 707.295 612.198C708.443 607.776 711.035 604.012 714.022 600.94C717.525 597.339 721.643 594.537 726.069 592.741C727.811 592.034 729.648 591.477 731.486 591.68C733.325 591.882 735.175 592.967 736.033 594.854C737.3 597.643 736.086 601.026 734.771 603.787C732.456 608.65 729.807 613.301 726.859 617.686C724.487 621.213 721.77 624.694 718.156 626.287C714.542 627.88 710.787 627.693 708.872 624.802" fill="#636CE3"/>
<path d="M702.854 678.713C702.809 678.716 702.737 678.082 702.639 676.934C702.531 675.641 702.392 674.016 702.23 672.082C702.034 670.04 701.776 667.61 701.283 664.964C700.793 662.325 700.026 659.463 699.041 656.563C698.021 653.679 696.777 651.058 695.323 648.962C693.879 646.856 692.2 645.333 690.622 644.453C689.049 643.555 687.638 643.192 686.662 643.03C685.679 642.914 685.128 642.824 685.128 642.773C685.128 642.722 685.679 642.714 686.69 642.745C687.692 642.822 689.16 643.115 690.819 643.984C692.483 644.835 694.264 646.383 695.778 648.532C697.304 650.672 698.594 653.35 699.633 656.286C700.636 659.237 701.391 662.128 701.86 664.824C702.327 667.516 702.54 669.974 702.681 672.031C702.815 674.091 702.864 675.76 702.889 676.914C702.909 678.071 702.897 678.71 702.854 678.713Z" fill="#C1C4F4"/>
<path d="M702.564 674.979C702.542 674.978 702.529 674.693 702.522 674.153C702.524 673.533 702.525 672.753 702.528 671.794C702.533 669.746 702.532 666.784 702.437 663.124C702.28 655.806 701.734 645.706 700.679 634.602C699.615 623.496 698.207 613.505 696.924 606.337C696.621 604.542 696.315 602.924 696.027 601.508C695.752 600.088 695.519 598.866 695.292 597.876C695.098 596.943 694.94 596.186 694.815 595.582C694.713 595.055 694.669 594.775 694.69 594.769C694.712 594.761 694.796 595.029 694.938 595.542C695.094 596.136 695.291 596.883 695.532 597.804C695.795 598.784 696.066 600 696.373 601.412C696.695 602.821 697.031 604.435 697.364 606.229C698.764 613.388 700.247 623.391 701.312 634.522C702.368 645.648 702.844 655.779 702.887 663.115C702.925 666.783 702.858 669.753 702.776 671.802C702.725 672.761 702.683 673.541 702.651 674.159C702.615 674.699 702.585 674.981 702.564 674.979Z" fill="#C1C4F4"/>
<path d="M702.521 655.44C702.477 655.438 702.485 654.563 702.536 652.976C702.615 651.392 702.803 649.102 703.19 646.298C703.601 643.5 704.173 640.179 705.073 636.57C705.929 632.947 707.104 629.037 708.6 625.059C711.525 617.054 715.499 610.509 718.957 606.456C719.768 605.381 720.67 604.605 721.393 603.844C721.767 603.479 722.097 603.115 722.434 602.828C722.772 602.558 723.087 602.308 723.379 602.076C724.518 601.179 725.155 600.705 725.177 600.747C725.279 600.906 722.628 602.707 719.281 606.814C715.948 610.913 712.085 617.413 709.183 625.349C707.701 629.294 706.517 633.167 705.636 636.756C704.711 640.33 704.097 643.617 703.633 646.388C703.192 649.164 702.936 651.43 702.783 652.999C702.657 654.57 702.566 655.441 702.521 655.44Z" fill="#C1C4F4"/>
<path d="M704.751 542.521L414.648 499.964L465.18 41.5932L762.484 85.2075C765.736 85.6839 768.035 89.1117 767.622 92.8627L719.504 529.344C718.584 537.682 711.98 543.581 704.751 542.521Z" fill="#000030"/>
<path d="M743.316 162.04L740.857 184.334L776.818 189.612L779.277 167.317L743.316 162.04Z" fill="#636CE3"/>
<path opacity="0.3" d="M743.316 162.04L740.857 184.334L776.818 189.612L779.277 167.317L743.316 162.04Z" fill="#0D0D0E"/>
<path d="M756.858 96.9861L476.317 55.8156L428.249 491.684L708.79 532.854L756.858 96.9861Z" fill="#E0E0E0"/>
<path d="M744.935 89.8345L464.394 48.6641L416.326 484.532L696.867 525.703L744.935 89.8345Z" fill="#FAFAFA"/>
<path d="M468.661 91.7892L748.222 132.802" stroke="#E0E0E0" stroke-width="0.823655" stroke-miterlimit="10"/>
<path d="M468.039 113.723L747.599 154.734" stroke="#E0E0E0" stroke-width="0.823655" stroke-miterlimit="10"/>
<path d="M465.649 135.396L745.209 176.408" stroke="#E0E0E0" stroke-width="0.823655" stroke-miterlimit="10"/>
<path d="M463.26 157.07L742.821 198.081" stroke="#E0E0E0" stroke-width="0.823655" stroke-miterlimit="10"/>
<path d="M460.87 178.744L740.431 219.755" stroke="#E0E0E0" stroke-width="0.823655" stroke-miterlimit="10"/>
<path d="M458.481 200.417L738.042 241.429" stroke="#E0E0E0" stroke-width="0.823655" stroke-miterlimit="10"/>
<path d="M456.091 222.091L735.652 263.102" stroke="#E0E0E0" stroke-width="0.823655" stroke-miterlimit="10"/>
<path d="M453.703 243.765L733.263 284.776" stroke="#E0E0E0" stroke-width="0.823655" stroke-miterlimit="10"/>
<path d="M451.314 265.437L730.874 306.45" stroke="#E0E0E0" stroke-width="0.823655" stroke-miterlimit="10"/>
<path d="M448.924 287.111L728.484 328.122" stroke="#E0E0E0" stroke-width="0.823655" stroke-miterlimit="10"/>
<path d="M446.535 308.784L726.095 349.796" stroke="#E0E0E0" stroke-width="0.823655" stroke-miterlimit="10"/>
<path d="M444.145 330.458L723.705 371.471" stroke="#E0E0E0" stroke-width="0.823655" stroke-miterlimit="10"/>
<path d="M441.756 352.132L721.317 393.143" stroke="#E0E0E0" stroke-width="0.823655" stroke-miterlimit="10"/>
<path d="M436.977 395.479L716.538 436.49" stroke="#E0E0E0" stroke-width="0.823655" stroke-miterlimit="10"/>
<path d="M434.589 417.153L714.148 458.164" stroke="#E0E0E0" stroke-width="0.823655" stroke-miterlimit="10"/>
<path d="M432.199 438.825L711.759 479.838" stroke="#E0E0E0" stroke-width="0.823655" stroke-miterlimit="10"/>
<path d="M429.81 460.5L709.369 501.511" stroke="#E0E0E0" stroke-width="0.823655" stroke-miterlimit="10"/>
<path d="M508.903 57.5023L461.018 491.872" stroke="#636CE3" stroke-width="0.823655" stroke-miterlimit="10"/>
<path d="M488.827 75.5414C488.426 79.1749 485.548 81.7472 482.397 81.2847C479.247 80.8222 477.018 77.5028 477.418 73.8677C477.819 70.2342 480.697 67.6619 483.848 68.1244C486.999 68.5869 489.228 71.9079 488.827 75.5414Z" fill="#000030"/>
<path d="M483.495 123.904C483.094 127.538 480.215 130.11 477.066 129.648C473.916 129.185 471.686 125.866 472.087 122.231C472.488 118.597 475.365 116.025 478.517 116.487C481.668 116.948 483.896 120.269 483.495 123.904Z" fill="#000030"/>
<path d="M478.164 172.266C477.763 175.899 474.886 178.472 471.734 178.009C468.585 177.547 466.355 174.227 466.756 170.592C467.157 166.959 470.035 164.386 473.185 164.849C476.336 165.311 478.565 168.632 478.164 172.266Z" fill="#000030"/>
<path d="M472.833 220.629C472.432 224.262 469.554 226.835 466.403 226.372C463.253 225.91 461.023 222.59 461.424 218.955C461.825 215.322 464.703 212.749 467.854 213.212C471.005 213.674 473.233 216.995 472.833 220.629Z" fill="#000030"/>
<path d="M467.501 268.992C467.1 272.625 464.221 275.198 461.072 274.735C457.922 274.273 455.692 270.953 456.093 267.318C456.494 263.685 459.371 261.112 462.522 261.575C465.672 262.037 467.902 265.357 467.501 268.992Z" fill="#000030"/>
<path d="M462.17 317.355C461.769 320.988 458.891 323.561 455.74 323.098C452.59 322.636 450.36 319.316 450.761 315.681C451.162 312.048 454.04 309.475 457.191 309.938C460.341 310.4 462.571 313.72 462.17 317.355Z" fill="#000030"/>
<path d="M456.838 365.716C456.437 369.35 453.56 371.922 450.409 371.46C447.259 370.997 445.029 367.678 445.43 364.043C445.831 360.409 448.708 357.837 451.86 358.299C455.009 358.762 457.239 362.083 456.838 365.716Z" fill="#000030"/>
<path d="M451.507 414.079C451.106 417.713 448.228 420.285 445.077 419.823C441.927 419.36 439.697 416.041 440.098 412.406C440.499 408.772 443.377 406.2 446.528 406.662C449.678 407.125 451.906 410.446 451.507 414.079Z" fill="#000030"/>
<path d="M446.175 462.442C445.774 466.076 442.895 468.648 439.746 468.186C436.596 467.723 434.366 464.404 434.767 460.769C435.168 457.134 438.045 454.563 441.196 455.025C444.346 455.488 446.575 458.807 446.175 462.442Z" fill="#000030"/>
<path d="M460.357 94.7405C460.337 94.821 460.12 94.8163 459.719 94.7313C459.324 94.6276 458.716 94.5255 457.991 94.1961C457.273 93.848 456.374 93.4335 455.452 92.6786C454.502 91.981 453.541 90.957 452.633 89.6762C451.782 88.3568 450.938 86.7821 450.435 84.9213C449.902 83.079 449.581 81.0187 449.565 78.8376C449.588 76.6783 449.735 74.307 450.765 72.0161C451.741 69.8258 453.267 67.9093 455.107 66.4739C456.948 65.0353 459.016 64.1242 461.069 63.7267C463.118 63.3245 465.13 63.3941 466.982 63.7329C470.701 64.4352 473.762 66.1769 476.082 67.897C478.415 69.6294 480.075 71.3448 481.176 72.5668C482.269 73.8027 482.793 74.5761 482.7 74.6968C482.601 74.8252 481.893 74.29 480.657 73.2907C479.415 72.307 477.649 70.8328 475.327 69.3649C473.012 67.9016 470.097 66.4553 466.705 65.9356C465.017 65.685 463.222 65.6742 461.43 66.0578C459.648 66.4321 457.867 67.2365 456.284 68.4739C454.704 69.7067 453.416 71.3154 452.586 73.1128C451.767 74.8205 451.559 76.9211 451.497 78.85C451.461 80.799 451.689 82.6552 452.094 84.3196C452.471 86.0041 453.149 87.4272 453.829 88.6646C454.564 89.8603 455.351 90.8627 456.156 91.5974C456.929 92.3863 457.714 92.8874 458.339 93.3438C458.972 93.7831 459.516 94.0213 459.857 94.2703C460.2 94.4992 460.377 94.6601 460.357 94.7405Z" fill="#636CE3"/>
<path d="M455.025 143.104C455.005 143.184 454.788 143.179 454.387 143.094C453.993 142.991 453.384 142.889 452.66 142.559C451.941 142.211 451.043 141.798 450.12 141.042C449.171 140.342 448.209 139.32 447.302 138.039C446.452 136.72 445.607 135.145 445.104 133.284C444.572 131.442 444.25 129.382 444.234 127.201C444.255 125.041 444.404 122.67 445.434 120.379C446.41 118.189 447.936 116.272 449.776 114.837C451.617 113.398 453.684 112.487 455.737 112.09C457.788 111.688 459.799 111.757 461.651 112.096C465.369 112.798 468.43 114.54 470.75 116.26C473.083 117.992 474.743 119.708 475.844 120.93C476.937 122.166 477.461 122.939 477.368 123.06C477.27 123.188 476.56 122.653 475.324 121.654C474.082 120.67 472.316 119.197 469.993 117.728C467.678 116.265 464.763 114.818 461.37 114.299C459.682 114.048 457.888 114.037 456.095 114.421C454.313 114.795 452.533 115.599 450.95 116.837C449.369 118.07 448.082 119.678 447.252 121.476C446.433 123.184 446.225 125.284 446.163 127.213C446.127 129.162 446.355 131.02 446.761 132.683C447.138 134.367 447.817 135.79 448.496 137.028C449.231 138.223 450.018 139.226 450.823 139.96C451.597 140.749 452.381 141.25 453.006 141.708C453.639 142.148 454.183 142.386 454.524 142.635C454.868 142.862 455.045 143.023 455.025 143.104Z" fill="#636CE3"/>
<path d="M449.694 191.465C449.674 191.545 449.456 191.541 449.055 191.456C448.661 191.352 448.052 191.25 447.328 190.921C446.61 190.573 445.711 190.16 444.789 189.403C443.839 188.704 442.878 187.681 441.97 186.401C441.12 185.081 440.275 183.507 439.772 181.646C439.239 179.804 438.918 177.743 438.902 175.562C438.925 173.403 439.072 171.031 440.102 168.741C441.078 166.55 442.604 164.634 444.444 163.198C446.285 161.76 448.353 160.849 450.406 160.451C452.456 160.049 454.467 160.119 456.319 160.457C460.038 161.158 463.099 162.901 465.419 164.621C467.752 166.354 469.412 168.069 470.513 169.291C471.606 170.527 472.13 171.301 472.036 171.421C471.937 171.55 471.229 171.014 469.992 170.017C468.751 169.033 466.985 167.559 464.662 166.091C462.348 164.628 459.433 163.181 456.04 162.662C454.352 162.411 452.558 162.402 450.765 162.784C448.983 163.158 447.204 163.962 445.62 165.2C444.039 166.433 442.752 168.041 441.922 169.839C441.103 171.547 440.895 173.647 440.833 175.576C440.797 177.525 441.025 179.383 441.43 181.046C441.807 182.73 442.485 184.152 443.165 185.391C443.901 186.586 444.687 187.589 445.491 188.322C446.265 189.111 447.049 189.612 447.674 190.07C448.307 190.509 448.852 190.747 449.192 190.996C449.537 191.225 449.714 191.386 449.694 191.465Z" fill="#636CE3"/>
<path d="M444.362 239.828C444.342 239.908 444.125 239.904 443.724 239.819C443.33 239.715 442.721 239.613 441.997 239.284C441.278 238.936 440.38 238.521 439.457 237.766C438.508 237.067 437.547 236.045 436.639 234.764C435.787 233.444 434.944 231.87 434.441 230.009C433.907 228.167 433.587 226.106 433.571 223.925C433.594 221.766 433.741 219.395 434.771 217.104C435.747 214.913 437.273 212.997 439.113 211.561C440.954 210.123 443.022 209.212 445.074 208.814C447.123 208.412 449.136 208.482 450.988 208.82C454.706 209.521 457.768 211.264 460.087 212.984C462.42 214.717 464.081 216.432 465.181 217.654C466.274 218.89 466.799 219.664 466.706 219.784C466.607 219.913 465.899 219.378 464.662 218.378C463.421 217.394 461.655 215.922 459.332 214.452C457.018 212.989 454.103 211.543 450.71 211.023C449.022 210.773 447.228 210.762 445.435 211.145C443.653 211.52 441.872 212.324 440.29 213.561C438.709 214.794 437.422 216.403 436.592 218.2C435.773 219.908 435.565 222.009 435.503 223.938C435.467 225.887 435.695 227.743 436.101 229.407C436.478 231.092 437.156 232.513 437.836 233.752C438.571 234.948 439.358 235.95 440.163 236.685C440.936 237.474 441.721 237.975 442.346 238.431C442.979 238.871 443.523 239.109 443.864 239.358C444.206 239.588 444.383 239.748 444.362 239.828Z" fill="#636CE3"/>
<path d="M439.03 288.191C439.009 288.271 438.792 288.267 438.391 288.182C437.997 288.078 437.388 287.976 436.663 287.647C435.944 287.299 435.046 286.886 434.123 286.129C433.174 285.43 432.212 284.408 431.305 283.127C430.454 281.807 429.61 280.233 429.107 278.372C428.574 276.53 428.253 274.469 428.237 272.288C428.259 270.129 428.407 267.757 429.437 265.467C430.413 263.276 431.939 261.36 433.779 259.924C435.62 258.486 437.687 257.575 439.74 257.177C441.79 256.775 443.802 256.845 445.654 257.183C449.372 257.886 452.433 259.627 454.753 261.347C457.086 263.08 458.746 264.795 459.847 266.017C460.94 267.253 461.464 268.027 461.372 268.147C461.273 268.276 460.565 267.74 459.328 266.741C458.087 265.757 456.321 264.283 453.997 262.815C451.682 261.352 448.767 259.906 445.375 259.386C443.687 259.135 441.892 259.125 440.1 259.508C438.318 259.883 436.537 260.687 434.955 261.924C433.374 263.157 432.086 264.766 431.256 266.563C430.437 268.271 430.229 270.372 430.167 272.301C430.131 274.25 430.359 276.106 430.764 277.77C431.141 279.455 431.819 280.878 432.499 282.115C433.234 283.311 434.021 284.313 434.826 285.046C435.6 285.835 436.384 286.336 437.009 286.794C437.642 287.234 438.186 287.472 438.527 287.721C438.874 287.95 439.051 288.111 439.03 288.191Z" fill="#636CE3"/>
<path d="M433.698 336.554C433.678 336.635 433.461 336.63 433.06 336.545C432.666 336.441 432.057 336.339 431.333 336.01C430.614 335.662 429.716 335.249 428.793 334.492C427.844 333.795 426.882 332.771 425.975 331.49C425.124 330.17 424.28 328.596 423.777 326.735C423.244 324.893 422.923 322.832 422.906 320.651C422.928 318.492 423.077 316.121 424.107 313.83C425.083 311.639 426.609 309.723 428.448 308.287C430.29 306.849 432.357 305.938 434.41 305.54C436.46 305.138 438.472 305.208 440.324 305.546C444.042 306.249 447.103 307.99 449.423 309.71C451.756 311.443 453.418 313.158 454.517 314.38C455.61 315.616 456.134 316.39 456.04 316.51C455.941 316.639 455.233 316.104 453.997 315.104C452.755 314.12 450.989 312.646 448.667 311.178C446.352 309.715 443.437 308.269 440.045 307.749C438.356 307.499 436.562 307.488 434.77 307.871C432.987 308.246 431.208 309.05 429.624 310.287C428.044 311.52 426.756 313.129 425.926 314.926C425.107 316.634 424.899 318.735 424.837 320.664C424.801 322.613 425.029 324.469 425.434 326.133C425.811 327.818 426.489 329.239 427.169 330.478C427.905 331.674 428.691 332.676 429.496 333.409C430.269 334.198 431.054 334.699 431.679 335.157C432.312 335.597 432.856 335.835 433.197 336.084C433.543 336.313 433.72 336.474 433.698 336.554Z" fill="#636CE3"/>
<path d="M428.367 384.916C428.347 384.996 428.129 384.991 427.728 384.906C427.334 384.803 426.725 384.7 426 384.371C425.281 384.023 424.383 383.61 423.46 382.854C422.511 382.154 421.55 381.132 420.642 379.851C419.792 378.532 418.947 376.957 418.444 375.096C417.91 373.254 417.59 371.194 417.574 369.013C417.597 366.853 417.744 364.482 418.774 362.191C419.75 360.001 421.276 358.084 423.116 356.649C424.957 355.21 427.024 354.299 429.077 353.902C431.126 353.5 433.139 353.569 434.991 353.908C438.709 354.609 441.77 356.352 444.09 358.072C446.423 359.804 448.085 361.52 449.184 362.742C450.277 363.978 450.801 364.751 450.709 364.872C450.61 365 449.902 364.465 448.665 363.466C447.424 362.482 445.658 361.009 443.335 359.54C441.021 358.077 438.106 356.63 434.713 356.111C433.025 355.86 431.231 355.849 429.438 356.233C427.656 356.607 425.875 357.411 424.293 358.649C422.712 359.882 421.425 361.49 420.595 363.288C419.775 364.996 419.568 367.096 419.506 369.025C419.47 370.974 419.698 372.832 420.103 374.495C420.479 376.179 421.158 377.602 421.838 378.84C422.574 380.035 423.36 381.038 424.164 381.771C424.938 382.56 425.722 383.061 426.347 383.519C426.98 383.958 427.525 384.196 427.865 384.445C428.211 384.676 428.387 384.837 428.367 384.916Z" fill="#636CE3"/>
<path d="M423.035 433.279C423.015 433.359 422.798 433.354 422.397 433.269C422.003 433.166 421.394 433.064 420.668 432.734C419.95 432.386 419.051 431.973 418.129 431.217C417.179 430.518 416.218 429.495 415.31 428.214C414.46 426.895 413.615 425.32 413.112 423.459C412.58 421.617 412.258 419.558 412.242 417.376C412.264 415.216 412.412 412.845 413.442 410.554C414.418 408.364 415.944 406.447 417.784 405.012C419.625 403.573 421.693 402.662 423.746 402.265C425.796 401.863 427.807 401.931 429.659 402.271C433.378 402.972 436.439 404.715 438.759 406.435C441.092 408.167 442.752 409.883 443.853 411.105C444.946 412.341 445.47 413.114 445.377 413.235C445.278 413.363 444.57 412.828 443.334 411.829C442.092 410.845 440.326 409.371 438.002 407.903C435.688 406.44 432.773 404.993 429.38 404.474C427.692 404.223 425.898 404.214 424.105 404.596C422.323 404.97 420.544 405.776 418.96 407.012C417.379 408.245 416.092 409.854 415.262 411.651C414.443 413.359 414.235 415.459 414.173 417.388C414.137 419.337 414.365 421.193 414.77 422.858C415.147 424.542 415.825 425.964 416.505 427.203C417.24 428.398 418.027 429.401 418.831 430.135C419.605 430.924 420.39 431.425 421.014 431.882C421.647 432.321 422.192 432.559 422.532 432.808C422.88 433.039 423.055 433.198 423.035 433.279Z" fill="#636CE3"/>
<path d="M417.704 481.642C417.684 481.722 417.466 481.717 417.065 481.632C416.671 481.529 416.062 481.427 415.338 481.097C414.62 480.749 413.721 480.336 412.799 479.58C411.849 478.882 410.888 477.858 409.98 476.577C409.13 475.258 408.285 473.683 407.782 471.822C407.25 469.98 406.928 467.92 406.912 465.739C406.935 463.579 407.082 461.208 408.112 458.917C409.088 456.727 410.614 454.81 412.454 453.375C414.295 451.935 416.363 451.025 418.416 450.628C420.466 450.226 422.477 450.295 424.329 450.634C428.048 451.335 431.109 453.078 433.429 454.798C435.762 456.53 437.423 458.246 438.523 459.468C439.616 460.704 440.14 461.477 440.046 461.598C439.947 461.726 439.239 461.191 438.002 460.192C436.761 459.208 434.995 457.735 432.672 456.266C430.358 454.803 427.443 453.356 424.05 452.837C422.362 452.586 420.568 452.575 418.775 452.959C416.993 453.333 415.212 454.138 413.63 455.375C412.049 456.608 410.762 458.216 409.932 460.014C409.113 461.722 408.905 463.822 408.843 465.751C408.807 467.7 409.035 469.556 409.441 471.221C409.818 472.905 410.496 474.328 411.176 475.566C411.912 476.761 412.698 477.764 413.503 478.498C414.276 479.287 415.061 479.789 415.686 480.245C416.319 480.684 416.863 480.922 417.204 481.171C417.548 481.4 417.724 481.561 417.704 481.642Z" fill="#636CE3"/>
<g opacity="0.2">
<path d="M460.357 94.7405C460.337 94.821 460.12 94.8163 459.719 94.7313C459.324 94.6276 458.716 94.5255 457.991 94.1961C457.273 93.848 456.374 93.4335 455.452 92.6786C454.502 91.981 453.541 90.957 452.633 89.6762C451.782 88.3568 450.938 86.7821 450.435 84.9213C449.902 83.079 449.581 81.0187 449.565 78.8376C449.588 76.6783 449.735 74.307 450.765 72.0161C451.741 69.8258 453.267 67.9093 455.107 66.4739C456.948 65.0353 459.016 64.1242 461.069 63.7267C463.118 63.3245 465.13 63.3941 466.982 63.7329C470.701 64.4352 473.762 66.1769 476.082 67.897C478.415 69.6294 480.075 71.3448 481.176 72.5668C482.269 73.8027 482.793 74.5761 482.7 74.6968C482.601 74.8252 481.893 74.29 480.657 73.2907C479.415 72.307 477.649 70.8328 475.327 69.3649C473.012 67.9016 470.097 66.4553 466.705 65.9356C465.017 65.685 463.222 65.6742 461.43 66.0578C459.648 66.4321 457.867 67.2365 456.284 68.4739C454.704 69.7067 453.416 71.3154 452.586 73.1128C451.767 74.8205 451.559 76.9211 451.497 78.85C451.461 80.799 451.689 82.6552 452.094 84.3196C452.471 86.0041 453.149 87.4272 453.829 88.6646C454.564 89.8603 455.351 90.8627 456.156 91.5974C456.929 92.3863 457.714 92.8874 458.339 93.3438C458.972 93.7831 459.516 94.0213 459.857 94.2703C460.2 94.4992 460.377 94.6601 460.357 94.7405Z" fill="#0D0D0E"/>
<path d="M455.025 143.104C455.005 143.184 454.788 143.179 454.387 143.094C453.993 142.991 453.384 142.889 452.66 142.559C451.941 142.211 451.043 141.798 450.12 141.042C449.171 140.342 448.209 139.32 447.302 138.039C446.452 136.72 445.607 135.145 445.104 133.284C444.572 131.442 444.25 129.382 444.234 127.201C444.255 125.041 444.404 122.67 445.434 120.379C446.41 118.189 447.936 116.272 449.776 114.837C451.617 113.398 453.684 112.487 455.737 112.09C457.788 111.688 459.799 111.757 461.651 112.096C465.369 112.798 468.43 114.54 470.75 116.26C473.083 117.992 474.743 119.708 475.844 120.93C476.937 122.166 477.461 122.939 477.368 123.06C477.27 123.188 476.56 122.653 475.324 121.654C474.082 120.67 472.316 119.197 469.993 117.728C467.678 116.265 464.763 114.818 461.37 114.299C459.682 114.048 457.888 114.037 456.095 114.421C454.313 114.795 452.533 115.599 450.95 116.837C449.369 118.07 448.082 119.678 447.252 121.476C446.433 123.184 446.225 125.284 446.163 127.213C446.127 129.162 446.355 131.02 446.761 132.683C447.138 134.367 447.817 135.79 448.496 137.028C449.231 138.223 450.018 139.226 450.823 139.96C451.597 140.749 452.381 141.25 453.006 141.708C453.639 142.148 454.183 142.386 454.524 142.635C454.868 142.862 455.045 143.023 455.025 143.104Z" fill="#0D0D0E"/>
<path d="M449.694 191.465C449.674 191.545 449.456 191.541 449.055 191.456C448.661 191.352 448.052 191.25 447.328 190.921C446.61 190.573 445.711 190.16 444.789 189.403C443.839 188.704 442.878 187.681 441.97 186.401C441.12 185.081 440.275 183.507 439.772 181.646C439.239 179.804 438.918 177.743 438.902 175.562C438.925 173.403 439.072 171.031 440.102 168.741C441.078 166.55 442.604 164.634 444.444 163.198C446.285 161.76 448.353 160.849 450.406 160.451C452.456 160.049 454.467 160.119 456.319 160.457C460.038 161.158 463.099 162.901 465.419 164.621C467.752 166.354 469.412 168.069 470.513 169.291C471.606 170.527 472.13 171.301 472.036 171.421C471.937 171.55 471.229 171.014 469.992 170.017C468.751 169.033 466.985 167.559 464.662 166.091C462.348 164.628 459.433 163.181 456.04 162.662C454.352 162.411 452.558 162.402 450.765 162.784C448.983 163.158 447.204 163.962 445.62 165.2C444.039 166.433 442.752 168.041 441.922 169.839C441.103 171.547 440.895 173.647 440.833 175.576C440.797 177.525 441.025 179.383 441.43 181.046C441.807 182.73 442.485 184.152 443.165 185.391C443.901 186.586 444.687 187.589 445.491 188.322C446.265 189.111 447.049 189.612 447.674 190.07C448.307 190.509 448.852 190.747 449.192 190.996C449.537 191.225 449.714 191.386 449.694 191.465Z" fill="#0D0D0E"/>
<path d="M444.362 239.828C444.342 239.908 444.125 239.904 443.724 239.819C443.33 239.715 442.721 239.613 441.997 239.284C441.278 238.936 440.38 238.521 439.457 237.766C438.508 237.067 437.547 236.045 436.639 234.764C435.787 233.444 434.944 231.87 434.441 230.009C433.907 228.167 433.587 226.106 433.571 223.925C433.594 221.766 433.741 219.395 434.771 217.104C435.747 214.913 437.273 212.997 439.113 211.561C440.954 210.123 443.022 209.212 445.074 208.814C447.123 208.412 449.136 208.482 450.988 208.82C454.706 209.521 457.768 211.264 460.087 212.984C462.42 214.717 464.081 216.432 465.181 217.654C466.274 218.89 466.799 219.664 466.706 219.784C466.607 219.913 465.899 219.378 464.662 218.378C463.421 217.394 461.655 215.922 459.332 214.452C457.018 212.989 454.103 211.543 450.71 211.023C449.022 210.773 447.228 210.762 445.435 211.145C443.653 211.52 441.872 212.324 440.29 213.561C438.709 214.794 437.422 216.403 436.592 218.2C435.773 219.908 435.565 222.009 435.503 223.938C435.467 225.887 435.695 227.743 436.101 229.407C436.478 231.092 437.156 232.513 437.836 233.752C438.571 234.948 439.358 235.95 440.163 236.685C440.936 237.474 441.721 237.975 442.346 238.431C442.979 238.871 443.523 239.109 443.864 239.358C444.206 239.588 444.383 239.748 444.362 239.828Z" fill="#0D0D0E"/>
<path d="M439.03 288.191C439.009 288.271 438.792 288.267 438.391 288.182C437.997 288.078 437.388 287.976 436.663 287.647C435.944 287.299 435.046 286.886 434.123 286.129C433.174 285.43 432.212 284.408 431.305 283.127C430.454 281.807 429.61 280.233 429.107 278.372C428.574 276.53 428.253 274.469 428.237 272.288C428.259 270.129 428.407 267.757 429.437 265.467C430.413 263.276 431.939 261.36 433.779 259.924C435.62 258.486 437.687 257.575 439.74 257.177C441.79 256.775 443.802 256.845 445.654 257.183C449.372 257.886 452.433 259.627 454.753 261.347C457.086 263.08 458.746 264.795 459.847 266.017C460.94 267.253 461.464 268.027 461.372 268.147C461.273 268.276 460.565 267.74 459.328 266.741C458.087 265.757 456.321 264.283 453.997 262.815C451.682 261.352 448.767 259.906 445.375 259.386C443.687 259.135 441.892 259.125 440.1 259.508C438.318 259.883 436.537 260.687 434.955 261.924C433.374 263.157 432.086 264.766 431.256 266.563C430.437 268.271 430.229 270.372 430.167 272.301C430.131 274.25 430.359 276.106 430.764 277.77C431.141 279.455 431.819 280.878 432.499 282.115C433.234 283.311 434.021 284.313 434.826 285.046C435.6 285.835 436.384 286.336 437.009 286.794C437.642 287.234 438.186 287.472 438.527 287.721C438.874 287.95 439.051 288.111 439.03 288.191Z" fill="#0D0D0E"/>
<path d="M433.698 336.554C433.678 336.635 433.461 336.63 433.06 336.545C432.666 336.441 432.057 336.339 431.333 336.01C430.614 335.662 429.716 335.249 428.793 334.492C427.844 333.795 426.882 332.771 425.975 331.49C425.124 330.17 424.28 328.596 423.777 326.735C423.244 324.893 422.923 322.832 422.906 320.651C422.928 318.492 423.077 316.121 424.107 313.83C425.083 311.639 426.609 309.723 428.448 308.287C430.29 306.849 432.357 305.938 434.41 305.54C436.46 305.138 438.472 305.208 440.324 305.546C444.042 306.249 447.103 307.99 449.423 309.71C451.756 311.443 453.418 313.158 454.517 314.38C455.61 315.616 456.134 316.39 456.04 316.51C455.941 316.639 455.233 316.104 453.997 315.104C452.755 314.12 450.989 312.646 448.667 311.178C446.352 309.715 443.437 308.269 440.045 307.749C438.356 307.499 436.562 307.488 434.77 307.871C432.987 308.246 431.208 309.05 429.624 310.287C428.044 311.52 426.756 313.129 425.926 314.926C425.107 316.634 424.899 318.735 424.837 320.664C424.801 322.613 425.029 324.469 425.434 326.133C425.811 327.818 426.489 329.239 427.169 330.478C427.905 331.674 428.691 332.676 429.496 333.409C430.269 334.198 431.054 334.699 431.679 335.157C432.312 335.597 432.856 335.835 433.197 336.084C433.543 336.313 433.72 336.474 433.698 336.554Z" fill="#0D0D0E"/>
<path d="M428.367 384.916C428.347 384.996 428.129 384.991 427.728 384.906C427.334 384.803 426.725 384.7 426 384.371C425.281 384.023 424.383 383.61 423.46 382.854C422.511 382.154 421.55 381.132 420.642 379.851C419.792 378.532 418.947 376.957 418.444 375.096C417.91 373.254 417.59 371.194 417.574 369.013C417.597 366.853 417.744 364.482 418.774 362.191C419.75 360.001 421.276 358.084 423.116 356.649C424.957 355.21 427.024 354.299 429.077 353.902C431.126 353.5 433.139 353.569 434.991 353.908C438.709 354.609 441.77 356.352 444.09 358.072C446.423 359.804 448.085 361.52 449.184 362.742C450.277 363.978 450.801 364.751 450.709 364.872C450.61 365 449.902 364.465 448.665 363.466C447.424 362.482 445.658 361.009 443.335 359.54C441.021 358.077 438.106 356.63 434.713 356.111C433.025 355.86 431.231 355.849 429.438 356.233C427.656 356.607 425.875 357.411 424.293 358.649C422.712 359.882 421.425 361.49 420.595 363.288C419.775 364.996 419.568 367.096 419.506 369.025C419.47 370.974 419.698 372.832 420.103 374.495C420.479 376.179 421.158 377.602 421.838 378.84C422.574 380.035 423.36 381.038 424.164 381.771C424.938 382.56 425.722 383.061 426.347 383.519C426.98 383.958 427.525 384.196 427.865 384.445C428.211 384.676 428.387 384.837 428.367 384.916Z" fill="#0D0D0E"/>
<path d="M423.035 433.279C423.015 433.359 422.798 433.354 422.397 433.269C422.003 433.166 421.394 433.064 420.668 432.734C419.95 432.386 419.051 431.973 418.129 431.217C417.179 430.518 416.218 429.495 415.31 428.214C414.46 426.895 413.615 425.32 413.112 423.459C412.58 421.617 412.258 419.558 412.242 417.376C412.264 415.216 412.412 412.845 413.442 410.554C414.418 408.364 415.944 406.447 417.784 405.012C419.625 403.573 421.693 402.662 423.746 402.265C425.796 401.863 427.807 401.931 429.659 402.271C433.378 402.972 436.439 404.715 438.759 406.435C441.092 408.167 442.752 409.883 443.853 411.105C444.946 412.341 445.47 413.114 445.377 413.235C445.278 413.363 444.57 412.828 443.334 411.829C442.092 410.845 440.326 409.371 438.002 407.903C435.688 406.44 432.773 404.993 429.38 404.474C427.692 404.223 425.898 404.214 424.105 404.596C422.323 404.97 420.544 405.776 418.96 407.012C417.379 408.245 416.092 409.854 415.262 411.651C414.443 413.359 414.235 415.459 414.173 417.388C414.137 419.337 414.365 421.193 414.77 422.858C415.147 424.542 415.825 425.964 416.505 427.203C417.24 428.398 418.027 429.401 418.831 430.135C419.605 430.924 420.39 431.425 421.014 431.882C421.647 432.321 422.192 432.559 422.532 432.808C422.88 433.039 423.055 433.198 423.035 433.279Z" fill="#0D0D0E"/>
<path d="M417.704 481.642C417.684 481.722 417.466 481.717 417.065 481.632C416.671 481.529 416.062 481.427 415.338 481.097C414.62 480.749 413.721 480.336 412.799 479.58C411.849 478.882 410.888 477.858 409.98 476.577C409.13 475.258 408.285 473.683 407.782 471.822C407.25 469.98 406.928 467.92 406.912 465.739C406.935 463.579 407.082 461.208 408.112 458.917C409.088 456.727 410.614 454.81 412.454 453.375C414.295 451.935 416.363 451.025 418.416 450.628C420.466 450.226 422.477 450.295 424.329 450.634C428.048 451.335 431.109 453.078 433.429 454.798C435.762 456.53 437.423 458.246 438.523 459.468C439.616 460.704 440.14 461.477 440.046 461.598C439.947 461.726 439.239 461.191 438.002 460.192C436.761 459.208 434.995 457.735 432.672 456.266C430.358 454.803 427.443 453.356 424.05 452.837C422.362 452.586 420.568 452.575 418.775 452.959C416.993 453.333 415.212 454.138 413.63 455.375C412.049 456.608 410.762 458.216 409.932 460.014C409.113 461.722 408.905 463.822 408.843 465.751C408.807 467.7 409.035 469.556 409.441 471.221C409.818 472.905 410.496 474.328 411.176 475.566C411.912 476.761 412.698 477.764 413.503 478.498C414.276 479.287 415.061 479.789 415.686 480.245C416.319 480.684 416.863 480.922 417.204 481.171C417.548 481.4 417.724 481.561 417.704 481.642Z" fill="#0D0D0E"/>
</g>
<path d="M745.186 145.086L742.728 167.38L775.09 172.129L777.548 149.835L745.186 145.086Z" fill="#636CE3"/>
<path d="M719.752 161.873C719.75 161.887 719.568 161.873 719.215 161.832C718.829 161.783 718.31 161.718 717.649 161.633C716.236 161.435 714.218 161.152 711.635 160.79C706.379 160.017 698.838 158.907 689.534 157.539C670.85 154.711 645.098 150.814 616.655 146.51C609.538 145.419 602.592 144.353 595.883 143.325C589.174 142.313 582.701 141.25 576.539 140.39C570.38 139.552 564.46 139.257 559.006 140.177C553.569 141.056 548.433 142.398 543.665 141.741C541.301 141.427 539.098 140.596 537.214 139.434C535.318 138.29 533.668 136.973 532.087 135.84C530.512 134.697 528.999 133.71 527.52 133.065C526.04 132.424 524.588 132.181 523.291 132.152C520.675 132.107 518.722 133.164 517.726 134.228C516.707 135.291 516.427 136.11 516.376 136.069C516.365 136.062 516.451 135.877 516.629 135.519C516.711 135.334 516.837 135.123 517.007 134.89C517.163 134.639 517.368 134.376 517.631 134.107C518.621 132.98 520.613 131.841 523.291 131.84C524.618 131.844 526.107 132.068 527.634 132.704C529.159 133.346 530.698 134.327 532.292 135.458C533.892 136.581 535.547 137.875 537.417 138.981C539.277 140.104 541.408 140.885 543.721 141.176C548.378 141.786 553.455 140.434 558.928 139.516C564.44 138.557 570.432 138.833 576.612 139.654C582.801 140.497 589.258 141.543 595.974 142.544C602.684 143.568 609.631 144.627 616.747 145.713C645.18 150.108 670.923 154.088 689.6 156.975C698.891 158.451 706.422 159.647 711.671 160.481C714.246 160.907 716.259 161.24 717.668 161.474C718.325 161.591 718.841 161.684 719.225 161.752C719.575 161.819 719.753 161.859 719.752 161.873Z" fill="#C1C4F4"/>
<path d="M714.085 184.376C714.084 184.39 713.914 184.379 713.582 184.343C713.218 184.3 712.734 184.243 712.118 184.169C710.792 183.992 708.904 183.74 706.494 183.42C701.573 182.729 694.523 181.739 685.826 180.517C668.347 177.983 644.267 174.492 617.668 170.637C591.071 166.69 566.997 163.115 549.526 160.522C540.841 159.194 533.8 158.117 528.887 157.365C526.484 156.98 524.603 156.678 523.279 156.467C522.668 156.36 522.186 156.276 521.823 156.213C521.496 156.151 521.328 156.112 521.329 156.098C521.331 156.085 521.501 156.095 521.831 156.131C522.196 156.174 522.68 156.231 523.295 156.306C524.621 156.482 526.508 156.734 528.919 157.054C533.839 157.746 540.891 158.736 549.586 159.958C567.064 162.491 591.148 165.983 617.754 169.839C644.342 173.786 668.414 177.36 685.886 179.952C694.571 181.281 701.612 182.357 706.527 183.109C708.931 183.494 710.812 183.796 712.134 184.008C712.746 184.115 713.228 184.198 713.59 184.261C713.92 184.323 714.087 184.362 714.085 184.376Z" fill="#C1C4F4"/>
<path d="M691.182 314.244C691.181 314.258 691.019 314.249 690.705 314.216C690.355 314.175 689.895 314.12 689.312 314.052C688.047 313.885 686.255 313.647 683.966 313.344C679.285 312.688 672.583 311.749 664.319 310.591C647.702 308.184 624.814 304.867 599.534 301.206C574.255 297.45 551.374 294.052 534.764 291.585C526.512 290.32 519.821 289.294 515.146 288.578C512.866 288.211 511.078 287.923 509.818 287.719C509.238 287.617 508.781 287.537 508.434 287.476C508.123 287.418 507.964 287.381 507.966 287.367C507.967 287.353 508.129 287.362 508.443 287.394C508.792 287.436 509.253 287.49 509.835 287.558C511.1 287.725 512.892 287.964 515.181 288.267C519.862 288.923 526.563 289.862 534.827 291.02C551.443 293.427 574.334 296.743 599.622 300.406C624.893 304.161 647.772 307.559 664.382 310.026C672.634 311.291 679.326 312.317 684.001 313.033C686.283 313.401 688.07 313.687 689.331 313.892C689.91 313.994 690.367 314.074 690.715 314.134C691.026 314.193 691.184 314.23 691.182 314.244Z" fill="#C1C4F4"/>
<path d="M686.338 358.185C686.336 358.199 686.174 358.19 685.86 358.157C685.51 358.115 685.051 358.061 684.467 357.993C683.203 357.826 681.41 357.588 679.121 357.285C674.44 356.629 667.738 355.69 659.474 354.531C642.857 352.124 619.969 348.808 594.689 345.147C569.41 341.391 546.529 337.993 529.919 335.525C521.667 334.26 514.976 333.235 510.302 332.518C508.021 332.152 506.233 331.864 504.973 331.66C504.394 331.558 503.936 331.477 503.589 331.417C503.278 331.358 503.12 331.321 503.121 331.307C503.122 331.293 503.285 331.303 503.598 331.335C503.947 331.377 504.408 331.431 504.99 331.499C506.255 331.666 508.048 331.904 510.337 332.208C515.018 332.863 521.718 333.802 529.982 334.961C546.599 337.368 569.489 340.684 594.778 344.347C620.049 348.101 642.927 351.5 659.537 353.967C667.789 355.232 674.481 356.258 679.156 356.974C681.438 357.342 683.226 357.63 684.486 357.832C685.065 357.934 685.523 358.015 685.87 358.075C686.181 358.134 686.34 358.171 686.338 358.185Z" fill="#C1C4F4"/>
<path d="M684.993 335.211C684.992 335.225 684.833 335.216 684.525 335.184C684.182 335.143 683.731 335.091 683.161 335.024C681.921 334.86 680.166 334.628 677.926 334.333C673.34 333.691 666.779 332.772 658.688 331.64C642.416 329.284 620.006 326.037 595.253 322.453C570.501 318.776 548.098 315.448 531.831 313.03C523.753 311.791 517.201 310.786 512.623 310.083C510.39 309.723 508.64 309.441 507.405 309.242C506.84 309.141 506.392 309.062 506.051 309.004C505.747 308.945 505.591 308.908 505.593 308.895C505.594 308.881 505.752 308.891 506.061 308.923C506.404 308.963 506.854 309.016 507.424 309.082C508.663 309.246 510.42 309.478 512.659 309.774C517.245 310.416 523.806 311.335 531.896 312.467C548.168 314.824 570.581 318.07 595.342 321.655C620.086 325.332 642.486 328.659 658.753 331.077C666.832 332.316 673.383 333.321 677.963 334.023C680.195 334.384 681.945 334.665 683.181 334.865C683.747 334.965 684.195 335.044 684.536 335.105C684.839 335.16 684.994 335.198 684.993 335.211Z" fill="#C1C4F4"/>
<path d="M583.239 362.966C583.237 362.994 582.946 362.979 582.394 362.924C581.771 362.853 580.973 362.76 579.989 362.648C577.815 362.36 574.821 361.965 571.158 361.481C563.631 360.408 553.381 358.946 542.057 357.331C530.739 355.625 520.498 354.08 512.978 352.946C509.328 352.356 506.343 351.875 504.176 351.526C503.199 351.351 502.408 351.21 501.788 351.099C501.244 350.992 500.958 350.923 500.961 350.896C500.964 350.868 501.255 350.884 501.806 350.938C502.429 351.009 503.227 351.102 504.211 351.215C506.385 351.503 509.379 351.897 513.041 352.381C520.568 353.455 530.818 354.916 542.147 356.531C553.462 358.238 563.702 359.781 571.222 360.915C574.872 361.504 577.858 361.985 580.025 362.335C581.003 362.51 581.795 362.651 582.415 362.762C582.958 362.869 583.242 362.938 583.239 362.966Z" fill="#C1C4F4"/>
<path d="M545.977 179.377C545.953 179.598 539.052 178.767 530.568 177.522C522.08 176.277 515.222 175.089 515.246 174.868C515.27 174.646 522.169 175.477 530.657 176.722C539.141 177.969 546.001 179.157 545.977 179.377Z" fill="#C1C4F4"/>
<path d="M693.831 290.221C693.829 290.234 693.673 290.225 693.37 290.196C693.03 290.157 692.586 290.106 692.025 290.043C690.845 289.886 689.104 289.676 686.857 289.459C684.612 289.232 681.861 288.988 678.664 288.774C675.468 288.539 671.824 288.346 667.796 288.142C659.74 287.727 650.137 287.439 639.481 286.723C634.155 286.35 628.563 285.882 622.793 285.022C617.032 284.12 611.107 283.025 605.017 281.987C580.695 277.694 558.68 273.809 542.697 270.987C534.761 269.543 528.325 268.372 523.825 267.552C521.632 267.136 519.915 266.809 518.7 266.577C518.145 266.463 517.705 266.373 517.37 266.304C517.071 266.237 516.918 266.197 516.92 266.183C516.922 266.169 517.079 266.183 517.38 266.222C517.718 266.271 518.162 266.334 518.721 266.416C519.942 266.611 521.666 266.888 523.866 267.241C528.375 267.999 534.822 269.085 542.772 270.423C558.764 273.184 580.788 276.986 605.122 281.189C611.207 282.225 617.147 283.329 622.885 284.239C628.625 285.105 634.206 285.589 639.523 285.982C650.16 286.739 659.764 287.085 667.82 287.572C671.849 287.812 675.494 288.046 678.691 288.324C681.889 288.581 684.64 288.872 686.884 289.147C689.13 289.413 690.867 289.673 692.042 289.882C692.6 289.979 693.041 290.055 693.379 290.114C693.679 290.171 693.832 290.207 693.831 290.221Z" fill="#C1C4F4"/>
<path d="M351.337 422.254C351.337 422.254 515.425 235.092 534.087 205.437L522.855 193.518L337.815 405.802L351.337 422.254Z" fill="#E0E0E0"/>
<path d="M301.31 461.74C308.694 461.903 328.643 458.616 356.743 425.179L381.539 399.371L362.567 378.314C362.567 378.314 400.38 337.906 398.572 335.696C396.763 333.485 376.672 354.998 360.79 370.853C346.342 385.276 298.137 436.139 297.02 456.334C296.861 459.214 298.809 461.686 301.31 461.74Z" fill="#636CE3"/>
<path opacity="0.2" d="M398.572 335.696C396.763 333.487 376.672 354.998 360.79 370.853C359.539 372.103 358.02 373.642 356.314 375.395L375.154 396.218L350.405 422.086C324.958 452.492 306.18 458.049 297.405 458.708C298.073 460.449 299.545 461.702 301.31 461.74C308.694 461.903 328.643 458.616 356.743 425.179L381.539 399.371L362.568 378.314C362.568 378.314 400.381 337.906 398.572 335.696Z" fill="#0D0D0E"/>
<path d="M384.169 373.062L513.496 223.116L508.019 217.305L378.911 366.662L384.169 373.062Z" fill="#C1C4F4"/>
<path d="M533.967 205.634C533.967 205.634 546.234 183.338 542.808 182.169C539.382 180.999 522.854 193.518 522.854 193.518L526.013 197.284L507.305 218.131L513.496 223.115L530.579 202.299L533.967 205.634Z" fill="#000030"/>
<path d="M407.919 307.081C414.742 307.686 420.631 301.627 420.895 293.74C421.147 286.165 421.368 278.508 421.368 278.508C421.368 278.508 431.318 277.433 432.039 266.073C432.761 254.713 432.432 228.49 432.432 228.49C421.323 222.033 408.056 223.017 397.755 231.062L396.226 232.256L396.784 293.356C396.847 300.569 401.682 306.527 407.919 307.081Z" fill="#FFBE9D"/>
<path d="M407.466 213.741C401.475 213.534 396.039 218.049 393.257 223.607C390.476 229.164 389.872 235.611 389.614 241.881C389.109 254.176 389.74 266.491 390.37 278.78C390.417 279.694 390.49 280.68 391.054 281.38C391.673 282.146 392.704 282.353 393.65 282.505C411.793 285.407 430.352 285.439 448.504 282.601C449.702 280.098 448.022 277.128 446.079 275.206C444.137 273.281 441.737 271.536 441.035 268.836C439.933 264.588 443.593 260.034 442.165 255.893C441.092 252.783 437.545 251.251 436.298 248.212C434.204 243.107 439.607 236.937 437.21 231.98C435.96 229.395 433.037 228.252 431.188 226.097C429.555 224.191 428.853 221.605 427.437 219.518C425.219 216.248 421.406 214.488 417.606 213.981C413.81 213.475 411.254 213.147 407.466 213.741Z" fill="#636CE3"/>
<path d="M393.43 226.73C390.887 228.16 389.787 231.662 389.418 234.9C389.05 238.136 389.149 241.53 387.982 244.504C386.737 247.68 384.142 250.102 383.457 253.497C382.566 257.912 385.089 263.114 382.812 266.808C381.343 269.187 378.463 269.782 376.657 271.827C374.159 274.655 374.38 279.288 374.78 283.298C385.739 283.186 396.698 283.073 407.658 282.96" fill="#636CE3"/>
<path d="M400.678 220.706C400.089 217.033 397.854 213.763 394.893 212.248C391.933 210.734 388.331 211.015 385.575 212.978C380.322 216.72 378.466 225.655 372.558 227.727C371.02 228.267 369.125 228.425 368.317 230.027C367.473 231.696 368.522 233.953 370.033 234.79C371.543 235.627 373.309 235.447 374.976 235.249C373.046 234.758 371.159 237.214 371.546 239.449C371.932 241.686 374.116 243.141 376.067 242.776C378.018 242.411 379.596 240.543 380.228 238.382C379.515 240.765 378.803 243.149 378.09 245.534C382.179 246.362 385.664 242.116 387.737 237.966C389.81 233.817 391.689 228.968 395.517 227.118C397.219 226.296 399.195 226.148 400.658 224.852C402.121 223.555 402.409 220.306 400.647 219.678" fill="#636CE3"/>
<path d="M402.384 220.839C402.419 220.765 403.151 221.183 403.824 222.425C404.49 223.62 404.998 225.777 404.284 227.936C403.542 230.085 401.902 231.274 400.71 231.633C399.485 232.021 398.703 231.757 398.719 231.675C398.72 231.539 399.479 231.582 400.552 231.093C401.606 230.632 402.998 229.492 403.633 227.644C404.252 225.786 403.896 223.862 403.392 222.699C402.888 221.501 402.305 220.941 402.384 220.839Z" fill="#C1C4F4"/>
<path d="M438.039 581.296L454.892 670.97L477.127 670.371L467.277 573.364L438.039 581.296Z" fill="#FFBE9D"/>
<path d="M358.754 331.43C358.754 331.43 358.376 332.054 357.763 333.177C354.191 339.72 344.137 363.192 352.609 378.892L373.872 357.33L377.464 347.642" fill="#FFBE9D"/>
<path d="M371.012 508.878L363.851 661.984L385.736 668.085L402.142 512.106L371.012 508.878Z" fill="#FFBE9D"/>
<path d="M467.681 316.34L436.832 324.927L435.051 352.378L439.346 368.03C439.294 368.598 446.282 394.924 446.282 394.924L448.447 403.629L377.942 404.475C377.706 394.97 383.187 385.598 383.187 385.598C387.199 377.749 386.161 365.902 384.294 356.907C383.702 354.061 382.919 349.37 382.607 346.465L382.553 345.963L378.518 354.151L354.039 333.765C361.987 316.079 373.651 298.193 375.056 296.863C383.769 288.607 393.221 289.179 393.221 289.179L423.66 289.478C423.66 289.478 447.622 286.016 461.593 283.294L467.681 316.34Z" fill="#000030"/>
<path d="M462.191 287.241C462.233 287.323 460.892 287.916 459.006 289.857C458.057 290.813 456.999 292.112 455.775 293.636C454.557 295.161 453.112 296.892 451.267 298.459C447.629 301.631 442.452 304.286 436.387 304.847C433.368 305.095 430.143 304.843 426.957 303.822C423.771 302.824 420.682 301.189 417.389 300.114C415.743 299.576 414.081 299.22 412.433 299.163C410.782 299.126 409.159 299.385 407.599 299.817C404.476 300.722 401.638 302.307 398.946 303.802C396.249 305.304 393.68 306.778 391.123 307.76C388.578 308.773 386.066 309.268 383.775 309.279C379.171 309.313 375.572 307.84 373.317 306.515C372.177 305.854 371.344 305.232 370.796 304.789C370.256 304.331 369.981 304.08 369.994 304.058C370.038 303.978 371.145 305.005 373.434 306.232C375.697 307.457 379.261 308.815 383.764 308.708C386.009 308.66 388.444 308.148 390.932 307.127C393.433 306.137 395.97 304.654 398.661 303.133C401.353 301.619 404.216 299.995 407.432 299.051C409.04 298.601 410.727 298.326 412.45 298.361C414.172 298.419 415.896 298.788 417.576 299.339C420.942 300.44 424.023 302.078 427.138 303.062C430.241 304.068 433.386 304.329 436.338 304.108C442.271 303.599 447.365 301.059 450.973 298.001C452.803 296.493 454.245 294.824 455.492 293.327C456.742 291.834 457.841 290.552 458.831 289.62C459.811 288.677 460.658 288.066 461.255 287.712C461.549 287.523 461.787 287.416 461.946 287.337C462.103 287.261 462.187 287.229 462.191 287.241Z" fill="#C1C4F4"/>
<path d="M435.282 333.422C435.282 333.422 435.115 333.711 434.667 334.104C434.226 334.5 433.477 334.983 432.419 335.225C431.365 335.468 430.019 335.444 428.545 334.996C427.058 334.574 425.509 333.603 423.933 332.409C422.346 331.227 420.699 329.774 418.719 328.736C416.738 327.723 414.409 327.188 411.96 327.315C407.018 327.491 401.88 329.89 396.624 332.512C393.964 333.782 391.325 334.97 388.657 335.71C386.002 336.474 383.307 336.758 380.786 336.358C378.259 335.98 375.981 334.867 374.089 333.485C372.185 332.104 370.624 330.478 369.332 328.874C366.762 325.637 365.173 322.592 364.066 320.531C363.52 319.49 363.111 318.671 362.84 318.113C362.569 317.554 362.438 317.253 362.458 317.239C362.478 317.225 362.651 317.497 362.96 318.028C363.306 318.633 363.748 319.406 364.295 320.364C365.47 322.37 367.118 325.35 369.691 328.484C370.982 330.036 372.531 331.601 374.394 332.919C376.248 334.237 378.443 335.281 380.87 335.623C383.294 335.988 385.897 335.702 388.493 334.944C391.1 334.211 393.707 333.034 396.355 331.77C401.597 329.159 406.837 326.718 411.942 326.576C414.471 326.464 416.906 327.046 418.959 328.13C421.012 329.241 422.65 330.737 424.206 331.935C425.754 333.151 427.225 334.116 428.648 334.563C430.06 335.037 431.353 335.105 432.37 334.919C434.444 334.517 435.232 333.306 435.282 333.422Z" fill="#C1C4F4"/>
<path d="M436.314 359.701C436.331 359.719 436.212 359.889 435.965 360.2C435.729 360.524 435.322 360.932 434.764 361.413C433.64 362.349 431.744 363.364 429.251 363.654C426.772 363.955 423.756 363.576 420.656 362.312C417.551 361.09 414.379 359.147 410.937 357.532C407.506 355.88 404.009 355.054 400.803 355.266C397.605 355.455 394.785 356.397 392.58 357.554C388.14 359.916 386.156 362.753 386.047 362.584C386.03 362.565 386.148 362.392 386.391 362.081C386.632 361.769 386.993 361.309 387.513 360.785C388.532 359.715 390.137 358.292 392.371 357.037C394.597 355.787 397.477 354.759 400.769 354.524C404.062 354.259 407.72 355.105 411.197 356.783C414.691 358.425 417.835 360.377 420.869 361.611C423.88 362.881 426.8 363.305 429.206 363.085C431.622 362.873 433.473 361.981 434.611 361.15C435.751 360.306 436.26 359.637 436.314 359.701Z" fill="#C1C4F4"/>
<path d="M443.859 384.965C443.815 385.033 443.143 384.394 441.765 383.582C440.386 382.784 438.245 381.909 435.487 381.658C432.735 381.389 429.415 381.757 425.883 382.866C422.335 383.946 418.571 385.698 414.489 387.182C410.417 388.71 406.299 389.451 402.574 389.346C398.845 389.267 395.521 388.501 392.848 387.51C390.167 386.527 388.116 385.361 386.755 384.467C386.067 384.032 385.562 383.641 385.22 383.375C384.878 383.109 384.705 382.959 384.718 382.934C384.753 382.869 385.491 383.392 386.884 384.19C388.273 384.993 390.33 386.066 392.993 386.965C395.647 387.873 398.924 388.568 402.583 388.605C406.247 388.665 410.247 387.926 414.282 386.413C418.324 384.947 422.114 383.205 425.72 382.148C429.32 381.059 432.722 380.741 435.532 381.09C438.351 381.42 440.529 382.405 441.892 383.305C442.572 383.766 443.079 384.161 443.393 384.475C443.713 384.776 443.874 384.943 443.859 384.965Z" fill="#C1C4F4"/>
<path d="M378.05 401.414L364.535 580.207L397.929 580.436L414.43 437.144L435.971 581.735L469.384 574.621L448.908 402.919L378.05 401.414Z" fill="#C1C4F4"/>
<path d="M438.35 432.466C438.373 432.688 426.924 434.434 412.781 436.369C398.633 438.304 387.15 439.693 387.127 439.472C387.104 439.251 398.552 437.504 412.698 435.569C426.841 433.636 438.327 432.245 438.35 432.466Z" fill="#000030"/>
<path d="M480.163 672.998L480.069 670.13L454.894 670.97L455.111 680.424L456.668 680.483C463.595 680.681 491.903 680.964 496.486 679.318C501.596 677.482 480.163 672.998 480.163 672.998Z" fill="#636CE3"/>
<g opacity="0.6">
<path d="M464.192 679.932C463.775 677.697 462.553 675.646 460.839 674.3C459.124 672.953 457.041 672.28 454.929 672.527L455.126 680.04L464.192 679.932Z" fill="white"/>
</g>
<g opacity="0.6">
<path d="M490.647 675.587C490.647 675.587 498.173 677.664 497.277 679.012C496.382 680.359 467.765 681.227 455.111 680.426L455.135 679.824L488.523 679.117C488.523 679.117 489.189 675.697 490.647 675.587Z" fill="white"/>
</g>
<path d="M454.74 679.818C454.74 679.828 454.888 679.841 455.171 679.855C455.544 679.867 455.95 679.881 456.412 679.898C457.651 679.918 459.175 679.941 460.972 679.971C464.823 680.002 470.145 679.971 476.02 679.798C481.897 679.623 487.212 679.341 491.057 679.081C492.851 678.947 494.37 678.832 495.606 678.74C496.065 678.696 496.471 678.659 496.841 678.623C497.123 678.594 497.272 678.572 497.271 678.562C497.269 678.551 497.12 678.549 496.837 678.559C496.466 678.576 496.058 678.593 495.598 678.613C494.361 678.678 492.84 678.757 491.045 678.851C487.199 679.05 481.885 679.296 476.012 679.471C470.14 679.643 464.822 679.712 460.972 679.739C459.174 679.751 457.651 679.762 456.412 679.77C455.952 679.776 455.544 679.782 455.171 679.788C454.89 679.798 454.741 679.807 454.74 679.818Z" fill="#C1C4F4"/>
<path d="M488.527 679.533C488.619 679.542 488.661 678.374 489.316 677.176C489.953 675.964 490.874 675.34 490.819 675.258C490.799 675.177 489.739 675.717 489.052 677.013C488.352 678.3 488.451 679.555 488.527 679.533Z" fill="#C1C4F4"/>
<path d="M481.024 675.734C481.097 675.78 481.438 675.307 481.787 674.679C482.136 674.051 482.361 673.504 482.289 673.457C482.216 673.411 481.876 673.884 481.526 674.512C481.177 675.14 480.953 675.688 481.024 675.734Z" fill="#C1C4F4"/>
<path d="M478.964 674.645C479.022 674.71 479.411 674.415 479.831 673.986C480.252 673.556 480.545 673.155 480.488 673.091C480.43 673.026 480.041 673.321 479.622 673.749C479.202 674.178 478.907 674.579 478.964 674.645Z" fill="#C1C4F4"/>
<path d="M477.615 672.147C477.617 672.237 478.204 672.3 478.928 672.286C479.652 672.272 480.237 672.189 480.236 672.099C480.234 672.009 479.647 671.947 478.923 671.96C478.199 671.972 477.613 672.056 477.615 672.147Z" fill="#C1C4F4"/>
<path d="M477.127 670.371C477.102 670.453 477.747 670.742 478.598 670.783C479.45 670.827 480.118 670.605 480.099 670.521C480.083 670.428 479.42 670.501 478.612 670.456C477.805 670.419 477.152 670.28 477.127 670.371Z" fill="#C1C4F4"/>
<path d="M481.813 673.363C481.811 673.398 482.432 673.462 483.423 673.302C483.918 673.224 484.501 673.08 485.127 672.845C485.439 672.715 485.764 672.616 486.097 672.381C486.254 672.261 486.425 672.096 486.482 671.831C486.542 671.57 486.405 671.284 486.219 671.148C484.657 670.339 483.14 671.315 482.59 672.186C482.287 672.631 482.155 673.06 482.096 673.353C482.039 673.65 482.049 673.819 482.066 673.822C482.124 673.842 482.157 673.138 482.761 672.326C483.058 671.929 483.516 671.536 484.111 671.326C484.674 671.128 485.483 671.053 486.034 671.408C486.295 671.602 486.204 671.929 485.924 672.119C485.664 672.311 485.325 672.433 485.03 672.562C484.426 672.804 483.863 672.968 483.383 673.075C482.426 673.29 481.811 673.31 481.813 673.363Z" fill="#C1C4F4"/>
<path d="M482.232 673.437C482.255 673.456 482.482 673.007 482.386 672.232C482.337 671.851 482.195 671.403 481.913 670.984C481.618 670.609 481.239 670.091 480.549 670.144C480.178 670.206 480.008 670.668 480.073 670.956C480.111 671.257 480.245 671.513 480.367 671.718C480.618 672.142 480.898 672.484 481.156 672.741C481.674 673.254 482.078 673.445 482.095 673.412C482.122 673.369 481.767 673.112 481.308 672.578C481.08 672.311 480.831 671.972 480.607 671.562C480.376 671.203 480.207 670.552 480.61 670.462C481.012 670.408 481.434 670.826 481.691 671.163C481.953 671.53 482.105 671.927 482.176 672.272C482.317 672.971 482.179 673.425 482.232 673.437Z" fill="#C1C4F4"/>
<path d="M455.057 672.449C455.064 672.509 455.773 672.354 456.911 672.462C458.036 672.561 459.61 673.009 460.998 674.125C462.384 675.245 463.221 676.743 463.623 677.875C464.036 679.015 464.094 679.788 464.15 679.779C464.169 679.777 464.173 679.584 464.137 679.236C464.102 678.89 464.011 678.39 463.826 677.794C463.466 676.611 462.627 675.032 461.181 673.862C459.735 672.698 458.085 672.272 456.927 672.229C456.342 672.203 455.87 672.249 455.55 672.309C455.226 672.371 455.055 672.428 455.057 672.449Z" fill="#C1C4F4"/>
<path d="M467.277 677.216C467.269 677.301 468.909 677.539 470.946 677.494C472.984 677.456 474.615 677.152 474.603 677.069C474.592 676.975 472.959 677.132 470.939 677.169C468.922 677.213 467.284 677.122 467.277 677.216Z" fill="#C1C4F4"/>
<path d="M462.364 677.357C462.305 677.425 462.507 677.725 462.686 678.122C462.869 678.518 462.965 678.874 463.05 678.866C463.131 678.863 463.169 678.438 462.959 677.98C462.751 677.521 462.416 677.29 462.364 677.357Z" fill="#C1C4F4"/>
<path d="M460.448 674.942C460.39 675.007 460.559 675.282 460.826 675.556C461.093 675.83 461.356 676 461.413 675.935C461.471 675.87 461.302 675.595 461.035 675.321C460.77 675.047 460.505 674.877 460.448 674.942Z" fill="#C1C4F4"/>
<path d="M457.769 673.893C457.789 673.985 458.121 673.971 458.493 674.099C458.867 674.218 459.135 674.429 459.199 674.367C459.265 674.316 459.045 673.938 458.583 673.788C458.121 673.633 457.742 673.811 457.769 673.893Z" fill="#C1C4F4"/>
<path d="M455.87 673.418C455.842 673.504 455.989 673.637 456.2 673.717C456.41 673.797 456.603 673.793 456.632 673.709C456.66 673.624 456.512 673.491 456.302 673.411C456.091 673.33 455.898 673.333 455.87 673.418Z" fill="#C1C4F4"/>
<path d="M363.201 660.674L359.475 679.587H384.658L385.736 667.274L363.201 660.674Z" fill="#636CE3"/>
<path d="M385.173 676.84C385.173 676.948 383.772 677.057 381.504 677.083C379.237 677.112 376.106 677.041 372.653 676.896C369.325 676.733 366.314 676.585 363.816 676.463C361.556 676.337 360.157 676.237 360.157 676.122C360.157 676.014 361.558 675.913 363.826 675.892C366.093 675.869 369.224 675.943 372.677 676.09C376.004 676.249 379.014 676.393 381.512 676.514C383.773 676.633 385.172 676.726 385.173 676.84Z" fill="#C1C4F4"/>
<path d="M374.502 664.36C374.695 664.376 374.691 667.117 374.494 670.484C374.297 673.852 373.982 676.569 373.79 676.554C373.598 676.538 373.601 673.797 373.798 670.43C373.995 667.063 374.31 664.345 374.502 664.36Z" fill="#C1C4F4"/>
<path opacity="0.6" d="M359.475 679.587H384.658L384.898 676.84L359.928 676.122L359.475 679.258" fill="white"/>
<path d="M520.658 223.546L511.474 227.368C511.342 223.125 508.841 218.705 508.841 220.832C508.841 222.958 507.973 233.907 507.973 233.907L488.816 272.352C486.152 278.475 481.353 282.044 477.905 282.677L462.194 286.558L466.609 310.516L488.504 304.28C494.185 302.662 498.864 298.032 501.116 291.803L519.333 241.432C519.333 241.432 521.48 235.712 522.401 231.46C523.319 227.207 520.658 223.546 520.658 223.546Z" fill="#FFBE9D"/>
</g>
<defs>
<filter id="filter0_d_81_1917" x="0.208984" y="0.266815" width="846.582" height="716.466" filterUnits="userSpaceOnUse" color-interpolation-filters="sRGB">
<feFlood flood-opacity="0" result="BackgroundImageFix"/>
<feColorMatrix in="SourceAlpha" type="matrix" values="0 0 0 0 0 0 0 0 0 0 0 0 0 0 0 0 0 0 127 0" result="hardAlpha"/>
<feOffset dy="7"/>
<feGaussianBlur stdDeviation="14.5"/>
<feColorMatrix type="matrix" values="0 0 0 0 0.392157 0 0 0 0 0.392157 0 0 0 0 0.435294 0 0 0 0.2 0"/>
<feBlend mode="normal" in2="BackgroundImageFix" result="effect1_dropShadow_81_1917"/>
<feBlend mode="normal" in="SourceGraphic" in2="effect1_dropShadow_81_1917" result="shape"/>
</filter>
</defs>
</svg>
