<svg width="394" height="417" viewBox="0 0 394 417" fill="none" xmlns="http://www.w3.org/2000/svg">
<path d="M384.591 0.494629H9.40896C4.21253 0.494629 0 4.80098 0 10.1131V406.876C0 412.188 4.21253 416.495 9.40896 416.495H384.591C389.787 416.495 394 412.188 394 406.876V10.1131C394 4.80098 389.787 0.494629 384.591 0.494629Z" fill="#F2F2F2"/>
<path d="M365.773 52.1941H302.262C297.066 52.1941 292.854 56.5004 292.854 61.8126V139.963C292.854 145.275 297.066 149.581 302.262 149.581H365.773C370.969 149.581 375.182 145.275 375.182 139.963V61.8126C375.182 56.5004 370.969 52.1941 365.773 52.1941Z" fill="#FAFAFA"/>
<path d="M334.018 108.703C344.411 108.703 352.836 100.09 352.836 89.4658C352.836 78.8415 344.411 70.2288 334.018 70.2288C323.625 70.2288 315.2 78.8415 315.2 89.4658C315.2 100.09 323.625 108.703 334.018 108.703Z" fill="#A1A7EE"/>
<path d="M359.893 113.512H308.144C306.195 113.512 304.615 115.127 304.615 117.119C304.615 119.111 306.195 120.726 308.144 120.726H359.893C361.841 120.726 363.421 119.111 363.421 117.119C363.421 115.127 361.841 113.512 359.893 113.512Z" fill="#A1A7EE"/>
<path d="M350.484 125.535H317.552C315.604 125.535 314.024 127.15 314.024 129.142C314.024 131.134 315.604 132.749 317.552 132.749H350.484C352.432 132.749 354.012 131.134 354.012 129.142C354.012 127.15 352.432 125.535 350.484 125.535Z" fill="#A1A7EE"/>
<path fill-rule="evenodd" clip-rule="evenodd" d="M9.40896 0.494629H384.591C389.787 0.494629 394 4.80098 394 10.1131V32.9571H0V10.1131C0 4.80098 4.21253 0.494629 9.40896 0.494629Z" fill="#636CE3"/>
<path d="M15.2897 22.1362C17.8879 22.1362 19.9942 19.983 19.9942 17.3269C19.9942 14.6709 17.8879 12.5177 15.2897 12.5177C12.6915 12.5177 10.5852 14.6709 10.5852 17.3269C10.5852 19.983 12.6915 22.1362 15.2897 22.1362Z" fill="#F2F2F2"/>
<path d="M29.403 22.1362C32.0012 22.1362 34.1074 19.983 34.1074 17.3269C34.1074 14.6709 32.0012 12.5177 29.403 12.5177C26.8048 12.5177 24.6985 14.6709 24.6985 17.3269C24.6985 19.983 26.8048 22.1362 29.403 22.1362Z" fill="#F2F2F2"/>
<path d="M43.5165 22.1362C46.1147 22.1362 48.221 19.983 48.221 17.3269C48.221 14.6709 46.1147 12.5177 43.5165 12.5177C40.9183 12.5177 38.812 14.6709 38.812 17.3269C38.812 19.983 40.9183 22.1362 43.5165 22.1362Z" fill="#F2F2F2"/>
<path d="M365.773 159.2H302.262C297.066 159.2 292.854 163.506 292.854 168.818V382.83C292.854 388.142 297.066 392.448 302.262 392.448H365.773C370.969 392.448 375.182 388.142 375.182 382.83V168.818C375.182 163.506 370.969 159.2 365.773 159.2Z" fill="#FAFAFA"/>
<path d="M349.308 180.841H318.729C316.131 180.841 314.024 182.995 314.024 185.651V207.292C314.024 209.948 316.131 212.102 318.729 212.102H349.308C351.906 212.102 354.012 209.948 354.012 207.292V185.651C354.012 182.995 351.906 180.841 349.308 180.841Z" fill="#A1A7EE"/>
<path d="M349.308 221.72H318.729C316.131 221.72 314.024 223.873 314.024 226.529V246.969C314.024 249.625 316.131 251.778 318.729 251.778H349.308C351.906 251.778 354.012 249.625 354.012 246.969V226.529C354.012 223.873 351.906 221.72 349.308 221.72Z" fill="#636CE3"/>
<path d="M349.308 261.396H318.729C316.131 261.396 314.024 263.55 314.024 266.206V286.645C314.024 289.301 316.131 291.454 318.729 291.454H349.308C351.906 291.454 354.012 289.301 354.012 286.645V266.206C354.012 263.55 351.906 261.396 349.308 261.396Z" fill="#A1A7EE"/>
<path d="M349.308 340.749H318.729C316.131 340.749 314.024 342.902 314.024 345.558V365.997C314.024 368.654 316.131 370.807 318.729 370.807H349.308C351.906 370.807 354.012 368.654 354.012 365.997V345.558C354.012 342.902 351.906 340.749 349.308 340.749Z" fill="#A1A7EE"/>
<path d="M349.308 301.073H318.729C316.131 301.073 314.024 303.226 314.024 305.882V326.321C314.024 328.977 316.131 331.13 318.729 331.13H349.308C351.906 331.13 354.012 328.977 354.012 326.321V305.882C354.012 303.226 351.906 301.073 349.308 301.073Z" fill="#636CE3"/>
<path d="M278.74 53.3965H23.5223C20.9241 53.3965 18.8179 55.5497 18.8179 58.2057V105.096C18.8179 107.752 20.9241 109.905 23.5223 109.905H278.74C281.338 109.905 283.445 107.752 283.445 105.096V58.2057C283.445 55.5497 281.338 53.3965 278.74 53.3965Z" fill="#FAFAFA"/>
<path d="M222.287 70.3491H32.9317C30.983 70.3491 29.4033 71.964 29.4033 73.9561V75.2185C29.4033 77.2105 30.983 78.8254 32.9317 78.8254H222.287C224.236 78.8254 225.815 77.2105 225.815 75.2185V73.9561C225.815 71.964 224.236 70.3491 222.287 70.3491Z" fill="#A1A7EE"/>
<path d="M157.713 84.4763H32.9317C30.983 84.4763 29.4033 86.0912 29.4033 88.0833V89.3457C29.4033 91.3377 30.983 92.9526 32.9317 92.9526H157.713C159.662 92.9526 161.241 91.3377 161.241 89.3457V88.0833C161.241 86.0912 159.662 84.4763 157.713 84.4763Z" fill="#A1A7EE"/>
<path d="M255.163 90.0669C259.71 90.0669 263.396 86.2988 263.396 81.6507C263.396 77.0026 259.71 73.2345 255.163 73.2345C250.617 73.2345 246.931 77.0026 246.931 81.6507C246.931 86.2988 250.617 90.0669 255.163 90.0669Z" fill="#A1A7EE"/>
<path d="M255.164 85.2576C257.112 85.2576 258.692 83.6427 258.692 81.6506C258.692 79.6586 257.112 78.0437 255.164 78.0437C253.215 78.0437 251.635 79.6586 251.635 81.6506C251.635 83.6427 253.215 85.2576 255.164 85.2576Z" fill="#F2F2F2"/>
<path d="M278.74 119.524H23.5223C20.9241 119.524 18.8179 121.677 18.8179 124.333V161.604C18.8179 164.261 20.9241 166.414 23.5223 166.414H278.74C281.338 166.414 283.445 164.261 283.445 161.604V124.333C283.445 121.677 281.338 119.524 278.74 119.524Z" fill="#FAFAFA"/>
<path d="M222.375 133.591H32.8435C30.9435 133.591 29.4033 135.165 29.4033 137.107C29.4033 139.05 30.9435 140.624 32.8435 140.624H222.375C224.275 140.624 225.815 139.05 225.815 137.107C225.815 135.165 224.275 133.591 222.375 133.591Z" fill="#A1A7EE"/>
<path d="M157.801 145.313H32.8435C30.9435 145.313 29.4033 146.888 29.4033 148.83C29.4033 150.772 30.9435 152.347 32.8435 152.347H157.801C159.701 152.347 161.241 150.772 161.241 148.83C161.241 146.888 159.701 145.313 157.801 145.313Z" fill="#A1A7EE"/>
<path d="M255.163 151.385C259.71 151.385 263.396 147.617 263.396 142.969C263.396 138.321 259.71 134.552 255.163 134.552C250.617 134.552 246.931 138.321 246.931 142.969C246.931 147.617 250.617 151.385 255.163 151.385Z" fill="#A1A7EE"/>
<path d="M255.164 146.576C257.112 146.576 258.692 144.961 258.692 142.969C258.692 140.977 257.112 139.362 255.164 139.362C253.215 139.362 251.635 140.977 251.635 142.969C251.635 144.961 253.215 146.576 255.164 146.576Z" fill="#F2F2F2"/>
<path d="M278.74 176.032H23.5223C20.9241 176.032 18.8179 178.185 18.8179 180.841V218.113C18.8179 220.769 20.9241 222.922 23.5223 222.922H278.74C281.338 222.922 283.445 220.769 283.445 218.113V180.841C283.445 178.185 281.338 176.032 278.74 176.032Z" fill="#FAFAFA"/>
<path d="M222.375 190.099H32.8435C30.9435 190.099 29.4033 191.674 29.4033 193.616C29.4033 195.558 30.9435 197.133 32.8435 197.133H222.375C224.275 197.133 225.815 195.558 225.815 193.616C225.815 191.674 224.275 190.099 222.375 190.099Z" fill="#A1A7EE"/>
<path d="M157.801 201.822H32.8435C30.9435 201.822 29.4033 203.396 29.4033 205.339C29.4033 207.281 30.9435 208.855 32.8435 208.855H157.801C159.701 208.855 161.241 207.281 161.241 205.339C161.241 203.396 159.701 201.822 157.801 201.822Z" fill="#A1A7EE"/>
<path d="M255.163 207.894C259.71 207.894 263.396 204.125 263.396 199.477C263.396 194.829 259.71 191.061 255.163 191.061C250.617 191.061 246.931 194.829 246.931 199.477C246.931 204.125 250.617 207.894 255.163 207.894Z" fill="#A1A7EE"/>
<path d="M255.164 203.084C257.112 203.084 258.692 201.469 258.692 199.477C258.692 197.485 257.112 195.87 255.164 195.87C253.215 195.87 251.635 197.485 251.635 199.477C251.635 201.469 253.215 203.084 255.164 203.084Z" fill="#636CE3"/>
<path d="M278.74 345.558H23.5223C20.9241 345.558 18.8179 347.711 18.8179 350.367V387.639C18.8179 390.295 20.9241 392.448 23.5223 392.448H278.74C281.338 392.448 283.445 390.295 283.445 387.639V350.367C283.445 347.711 281.338 345.558 278.74 345.558Z" fill="#FAFAFA"/>
<path d="M222.375 359.625H32.8435C30.9435 359.625 29.4033 361.2 29.4033 363.142C29.4033 365.084 30.9435 366.659 32.8435 366.659H222.375C224.275 366.659 225.815 365.084 225.815 363.142C225.815 361.2 224.275 359.625 222.375 359.625Z" fill="#A1A7EE"/>
<path d="M157.801 371.348H32.8435C30.9435 371.348 29.4033 372.922 29.4033 374.865C29.4033 376.807 30.9435 378.381 32.8435 378.381H157.801C159.701 378.381 161.241 376.807 161.241 374.865C161.241 372.922 159.701 371.348 157.801 371.348Z" fill="#A1A7EE"/>
<path d="M255.163 377.42C259.71 377.42 263.396 373.651 263.396 369.003C263.396 364.355 259.71 360.587 255.163 360.587C250.617 360.587 246.931 364.355 246.931 369.003C246.931 373.651 250.617 377.42 255.163 377.42Z" fill="#A1A7EE"/>
<path d="M255.164 372.61C257.112 372.61 258.692 370.995 258.692 369.003C258.692 367.011 257.112 365.396 255.164 365.396C253.215 365.396 251.635 367.011 251.635 369.003C251.635 370.995 253.215 372.61 255.164 372.61Z" fill="#F2F2F2"/>
<path d="M278.74 289.05H23.5223C20.9241 289.05 18.8179 291.203 18.8179 293.859V331.13C18.8179 333.787 20.9241 335.94 23.5223 335.94H278.74C281.338 335.94 283.445 333.787 283.445 331.13V293.859C283.445 291.203 281.338 289.05 278.74 289.05Z" fill="#FAFAFA"/>
<path d="M222.375 303.117H32.8435C30.9435 303.117 29.4033 304.691 29.4033 306.633C29.4033 308.576 30.9435 310.15 32.8435 310.15H222.375C224.275 310.15 225.815 308.576 225.815 306.633C225.815 304.691 224.275 303.117 222.375 303.117Z" fill="#A1A7EE"/>
<path d="M157.801 314.839H32.8435C30.9435 314.839 29.4033 316.414 29.4033 318.356C29.4033 320.298 30.9435 321.873 32.8435 321.873H157.801C159.701 321.873 161.241 320.298 161.241 318.356C161.241 316.414 159.701 314.839 157.801 314.839Z" fill="#A1A7EE"/>
<path d="M255.163 320.911C259.71 320.911 263.396 317.143 263.396 312.495C263.396 307.846 259.71 304.078 255.163 304.078C250.617 304.078 246.931 307.846 246.931 312.495C246.931 317.143 250.617 320.911 255.163 320.911Z" fill="#A1A7EE"/>
<path d="M255.164 316.102C257.112 316.102 258.692 314.487 258.692 312.495C258.692 310.503 257.112 308.888 255.164 308.888C253.215 308.888 251.635 310.503 251.635 312.495C251.635 314.487 253.215 316.102 255.164 316.102Z" fill="#F2F2F2"/>
<path d="M278.74 232.541H23.5223C20.9241 232.541 18.8179 234.694 18.8179 237.35V274.622C18.8179 277.278 20.9241 279.431 23.5223 279.431H278.74C281.338 279.431 283.445 277.278 283.445 274.622V237.35C283.445 234.694 281.338 232.541 278.74 232.541Z" fill="#FAFAFA"/>
<path d="M222.375 246.608H32.8435C30.9435 246.608 29.4033 248.182 29.4033 250.125C29.4033 252.067 30.9435 253.641 32.8435 253.641H222.375C224.275 253.641 225.815 252.067 225.815 250.125C225.815 248.182 224.275 246.608 222.375 246.608Z" fill="#A1A7EE"/>
<path d="M157.801 258.33H32.8435C30.9435 258.33 29.4033 259.905 29.4033 261.847C29.4033 263.789 30.9435 265.364 32.8435 265.364H157.801C159.701 265.364 161.241 263.789 161.241 261.847C161.241 259.905 159.701 258.33 157.801 258.33Z" fill="#A1A7EE"/>
<path d="M255.163 264.402C259.71 264.402 263.396 260.634 263.396 255.986C263.396 251.338 259.71 247.57 255.163 247.57C250.617 247.57 246.931 251.338 246.931 255.986C246.931 260.634 250.617 264.402 255.163 264.402Z" fill="#A1A7EE"/>
<path d="M255.164 259.593C257.112 259.593 258.692 257.978 258.692 255.986C258.692 253.994 257.112 252.379 255.164 252.379C253.215 252.379 251.635 253.994 251.635 255.986C251.635 257.978 253.215 259.593 255.164 259.593Z" fill="#F2F2F2"/>
</svg>
