<svg width="525" height="349" viewBox="0 0 525 349" fill="none" xmlns="http://www.w3.org/2000/svg">
<g filter="url(#filter0_d_81_2693)">
<g clip-path="url(#clip0_81_2693)">
<path d="M29.5 34.5C29.5 27.8726 34.8726 22.5 41.5 22.5H483.5C490.127 22.5 495.5 27.8726 495.5 34.5V300.5C495.5 307.127 490.127 312.5 483.5 312.5H41.5C34.8726 312.5 29.5 307.127 29.5 300.5V34.5Z" fill="#FAFAFA"/>
<rect width="466" height="42" transform="translate(29.5 22.5)" fill="#636CE3"/>
<circle cx="53" cy="43.5" r="7.5" fill="#FAFAFA"/>
<circle cx="78" cy="43.5" r="7.5" fill="#FAFAFA"/>
<circle cx="103" cy="43.5" r="7.5" fill="#FAFAFA"/>
</g>
</g>
<defs>
<filter id="filter0_d_81_2693" x="0.5" y="0.5" width="524" height="348" filterUnits="userSpaceOnUse" color-interpolation-filters="sRGB">
<feFlood flood-opacity="0" result="BackgroundImageFix"/>
<feColorMatrix in="SourceAlpha" type="matrix" values="0 0 0 0 0 0 0 0 0 0 0 0 0 0 0 0 0 0 127 0" result="hardAlpha"/>
<feOffset dy="7"/>
<feGaussianBlur stdDeviation="14.5"/>
<feColorMatrix type="matrix" values="0 0 0 0 0.392157 0 0 0 0 0.392157 0 0 0 0 0.435294 0 0 0 0.2 0"/>
<feBlend mode="normal" in2="BackgroundImageFix" result="effect1_dropShadow_81_2693"/>
<feBlend mode="normal" in="SourceGraphic" in2="effect1_dropShadow_81_2693" result="shape"/>
</filter>
<clipPath id="clip0_81_2693">
<path d="M29.5 34.5C29.5 27.8726 34.8726 22.5 41.5 22.5H483.5C490.127 22.5 495.5 27.8726 495.5 34.5V300.5C495.5 307.127 490.127 312.5 483.5 312.5H41.5C34.8726 312.5 29.5 307.127 29.5 300.5V34.5Z" fill="white"/>
</clipPath>
</defs>
</svg>
