<svg width="520" height="535" viewBox="0 0 520 535" fill="none" xmlns="http://www.w3.org/2000/svg">
<g filter="url(#filter0_d_81_2638)">
<path d="M479.491 22.5H40.509C34.4289 22.5 29.5 27.4275 29.5 33.5058V487.494C29.5 493.573 34.4289 498.5 40.509 498.5H479.491C485.571 498.5 490.5 493.573 490.5 487.494V33.5058C490.5 27.4275 485.571 22.5 479.491 22.5Z" fill="#F2F2F2"/>
<path d="M457.473 81.6561H383.162C377.082 81.6561 372.153 86.5836 372.153 92.6619V182.084C372.153 188.162 377.082 193.09 383.162 193.09H457.473C463.553 193.09 468.482 188.162 468.482 182.084V92.6619C468.482 86.5836 463.553 81.6561 457.473 81.6561Z" fill="#FAFAFA"/>
<path d="M420.318 146.315C432.478 146.315 442.336 136.46 442.336 124.304C442.336 112.147 432.478 102.292 420.318 102.292C408.158 102.292 398.3 112.147 398.3 124.304C398.3 136.46 408.158 146.315 420.318 146.315Z" fill="#A1A7EE"/>
<path d="M450.593 151.818H390.043C387.763 151.818 385.915 153.666 385.915 155.945C385.915 158.225 387.763 160.072 390.043 160.072H450.593C452.873 160.072 454.721 158.225 454.721 155.945C454.721 153.666 452.873 151.818 450.593 151.818Z" fill="#A1A7EE"/>
<path d="M439.584 165.575H401.052C398.772 165.575 396.924 167.423 396.924 169.702C396.924 171.982 398.772 173.83 401.052 173.83H439.584C441.864 173.83 443.712 171.982 443.712 169.702C443.712 167.423 441.864 165.575 439.584 165.575Z" fill="#A1A7EE"/>
<path fill-rule="evenodd" clip-rule="evenodd" d="M40.509 22.5H479.491C485.571 22.5 490.5 27.4275 490.5 33.5058V59.6445H29.5V33.5058C29.5 27.4275 34.4289 22.5 40.509 22.5Z" fill="#636CE3"/>
<path d="M47.3897 47.263C50.4298 47.263 52.8942 44.7993 52.8942 41.7601C52.8942 38.7209 50.4298 36.2572 47.3897 36.2572C44.3497 36.2572 41.8853 38.7209 41.8853 41.7601C41.8853 44.7993 44.3497 47.263 47.3897 47.263Z" fill="#F2F2F2"/>
<path d="M63.9032 47.263C66.9432 47.263 69.4076 44.7993 69.4076 41.7601C69.4076 38.7209 66.9432 36.2572 63.9032 36.2572C60.8631 36.2572 58.3987 38.7209 58.3987 41.7601C58.3987 44.7993 60.8631 47.263 63.9032 47.263Z" fill="#F2F2F2"/>
<path d="M80.4166 47.263C83.4566 47.263 85.9211 44.7993 85.9211 41.7601C85.9211 38.7209 83.4566 36.2572 80.4166 36.2572C77.3765 36.2572 74.9121 38.7209 74.9121 41.7601C74.9121 44.7993 77.3765 47.263 80.4166 47.263Z" fill="#F2F2F2"/>
<path d="M457.473 204.095H383.162C377.082 204.095 372.153 209.023 372.153 215.101V459.98C372.153 466.058 377.082 470.986 383.162 470.986H457.473C463.553 470.986 468.482 466.058 468.482 459.98V215.101C468.482 209.023 463.553 204.095 457.473 204.095Z" fill="#FAFAFA"/>
<path d="M438.208 228.858H402.429C399.389 228.858 396.924 231.322 396.924 234.361V259.124C396.924 262.163 399.389 264.627 402.429 264.627H438.208C441.248 264.627 443.712 262.163 443.712 259.124V234.361C443.712 231.322 441.248 228.858 438.208 228.858Z" fill="#A1A7EE"/>
<path d="M438.208 275.633H402.429C399.389 275.633 396.924 278.097 396.924 281.136V304.523C396.924 307.562 399.389 310.026 402.429 310.026H438.208C441.248 310.026 443.712 307.562 443.712 304.523V281.136C443.712 278.097 441.248 275.633 438.208 275.633Z" fill="#636CE3"/>
<path d="M438.208 321.032H402.429C399.389 321.032 396.924 323.496 396.924 326.535V349.922C396.924 352.961 399.389 355.425 402.429 355.425H438.208C441.248 355.425 443.712 352.961 443.712 349.922V326.535C443.712 323.496 441.248 321.032 438.208 321.032Z" fill="#A1A7EE"/>
<path d="M438.208 411.829H402.429C399.389 411.829 396.924 414.293 396.924 417.332V440.72C396.924 443.759 399.389 446.223 402.429 446.223H438.208C441.248 446.223 443.712 443.759 443.712 440.72V417.332C443.712 414.293 441.248 411.829 438.208 411.829Z" fill="#A1A7EE"/>
<path d="M438.208 366.431H402.429C399.389 366.431 396.924 368.894 396.924 371.934V395.321C396.924 398.36 399.389 400.824 402.429 400.824H438.208C441.248 400.824 443.712 398.36 443.712 395.321V371.934C443.712 368.894 441.248 366.431 438.208 366.431Z" fill="#636CE3"/>
<path d="M355.64 83.0319H57.0223C53.9823 83.0319 51.5178 85.4956 51.5178 88.5348V142.188C51.5178 145.227 53.9823 147.691 57.0223 147.691H355.64C358.68 147.691 361.145 145.227 361.145 142.188V88.5348C361.145 85.4956 358.68 83.0319 355.64 83.0319Z" fill="#FAFAFA"/>
<path d="M289.587 102.43H68.0317C65.7516 102.43 63.9033 104.277 63.9033 106.557V108.001C63.9033 110.281 65.7516 112.129 68.0317 112.129H289.587C291.867 112.129 293.715 110.281 293.715 108.001V106.557C293.715 104.277 291.867 102.43 289.587 102.43Z" fill="#A1A7EE"/>
<path d="M214.032 118.594H68.0317C65.7516 118.594 63.9033 120.442 63.9033 122.722V124.166C63.9033 126.445 65.7516 128.293 68.0317 128.293H214.032C216.312 128.293 218.161 126.445 218.161 124.166V122.722C218.161 120.442 216.312 118.594 214.032 118.594Z" fill="#A1A7EE"/>
<path d="M328.054 124.991C333.375 124.991 337.687 120.68 337.687 115.361C337.687 110.043 333.375 105.731 328.054 105.731C322.734 105.731 318.422 110.043 318.422 115.361C318.422 120.68 322.734 124.991 328.054 124.991Z" fill="#A1A7EE"/>
<path d="M328.054 119.488C330.334 119.488 332.183 117.641 332.183 115.361C332.183 113.082 330.334 111.234 328.054 111.234C325.774 111.234 323.926 113.082 323.926 115.361C323.926 117.641 325.774 119.488 328.054 119.488Z" fill="#F2F2F2"/>
<path d="M355.64 158.697H57.0223C53.9823 158.697 51.5178 161.16 51.5178 164.199V206.847C51.5178 209.886 53.9823 212.35 57.0223 212.35H355.64C358.68 212.35 361.145 209.886 361.145 206.847V164.199C361.145 161.16 358.68 158.697 355.64 158.697Z" fill="#FAFAFA"/>
<path d="M289.69 174.792H67.9285C65.7054 174.792 63.9033 176.594 63.9033 178.816C63.9033 181.039 65.7054 182.84 67.9285 182.84H289.69C291.913 182.84 293.715 181.039 293.715 178.816C293.715 176.594 291.913 174.792 289.69 174.792Z" fill="#A1A7EE"/>
<path d="M214.135 188.206H67.9285C65.7054 188.206 63.9033 190.007 63.9033 192.23C63.9033 194.452 65.7054 196.254 67.9285 196.254H214.135C216.359 196.254 218.161 194.452 218.161 192.23C218.161 190.007 216.359 188.206 214.135 188.206Z" fill="#A1A7EE"/>
<path d="M328.054 195.153C333.375 195.153 337.687 190.842 337.687 185.523C337.687 180.205 333.375 175.893 328.054 175.893C322.734 175.893 318.422 180.205 318.422 185.523C318.422 190.842 322.734 195.153 328.054 195.153Z" fill="#A1A7EE"/>
<path d="M328.054 189.65C330.334 189.65 332.183 187.803 332.183 185.523C332.183 183.244 330.334 181.396 328.054 181.396C325.774 181.396 323.926 183.244 323.926 185.523C323.926 187.803 325.774 189.65 328.054 189.65Z" fill="#F2F2F2"/>
<path d="M355.64 223.355H57.0223C53.9823 223.355 51.5178 225.819 51.5178 228.858V271.506C51.5178 274.545 53.9823 277.009 57.0223 277.009H355.64C358.68 277.009 361.145 274.545 361.145 271.506V228.858C361.145 225.819 358.68 223.355 355.64 223.355Z" fill="#FAFAFA"/>
<path d="M289.69 239.451H67.9285C65.7054 239.451 63.9033 241.253 63.9033 243.475C63.9033 245.698 65.7054 247.499 67.9285 247.499H289.69C291.913 247.499 293.715 245.698 293.715 243.475C293.715 241.253 291.913 239.451 289.69 239.451Z" fill="#A1A7EE"/>
<path d="M214.135 252.865H67.9285C65.7054 252.865 63.9033 254.666 63.9033 256.889C63.9033 259.111 65.7054 260.913 67.9285 260.913H214.135C216.359 260.913 218.161 259.111 218.161 256.889C218.161 254.666 216.359 252.865 214.135 252.865Z" fill="#A1A7EE"/>
<path d="M328.054 259.812C333.375 259.812 337.687 255.501 337.687 250.182C337.687 244.864 333.375 240.552 328.054 240.552C322.734 240.552 318.422 244.864 318.422 250.182C318.422 255.501 322.734 259.812 328.054 259.812Z" fill="#A1A7EE"/>
<path d="M328.054 254.309C330.334 254.309 332.183 252.461 332.183 250.182C332.183 247.903 330.334 246.055 328.054 246.055C325.774 246.055 323.926 247.903 323.926 250.182C323.926 252.461 325.774 254.309 328.054 254.309Z" fill="#636CE3"/>
<path d="M355.64 417.332H57.0223C53.9823 417.332 51.5178 419.796 51.5178 422.835V465.483C51.5178 468.522 53.9823 470.986 57.0223 470.986H355.64C358.68 470.986 361.145 468.522 361.145 465.483V422.835C361.145 419.796 358.68 417.332 355.64 417.332Z" fill="#FAFAFA"/>
<path d="M289.69 433.428H67.9285C65.7054 433.428 63.9033 435.23 63.9033 437.452C63.9033 439.675 65.7054 441.476 67.9285 441.476H289.69C291.913 441.476 293.715 439.675 293.715 437.452C293.715 435.23 291.913 433.428 289.69 433.428Z" fill="#A1A7EE"/>
<path d="M214.135 446.842H67.9285C65.7054 446.842 63.9033 448.643 63.9033 450.866C63.9033 453.088 65.7054 454.889 67.9285 454.889H214.135C216.359 454.889 218.161 453.088 218.161 450.866C218.161 448.643 216.359 446.842 214.135 446.842Z" fill="#A1A7EE"/>
<path d="M328.054 453.789C333.375 453.789 337.687 449.478 337.687 444.159C337.687 438.841 333.375 434.529 328.054 434.529C322.734 434.529 318.422 438.841 318.422 444.159C318.422 449.478 322.734 453.789 328.054 453.789Z" fill="#A1A7EE"/>
<path d="M328.054 448.286C330.334 448.286 332.183 446.439 332.183 444.159C332.183 441.88 330.334 440.032 328.054 440.032C325.774 440.032 323.926 441.88 323.926 444.159C323.926 446.439 325.774 448.286 328.054 448.286Z" fill="#F2F2F2"/>
<path d="M355.64 352.673H57.0223C53.9823 352.673 51.5178 355.137 51.5178 358.176V400.824C51.5178 403.863 53.9823 406.327 57.0223 406.327H355.64C358.68 406.327 361.145 403.863 361.145 400.824V358.176C361.145 355.137 358.68 352.673 355.64 352.673Z" fill="#FAFAFA"/>
<path d="M289.69 368.769H67.9285C65.7054 368.769 63.9033 370.571 63.9033 372.793C63.9033 375.016 65.7054 376.817 67.9285 376.817H289.69C291.913 376.817 293.715 375.016 293.715 372.793C293.715 370.571 291.913 368.769 289.69 368.769Z" fill="#A1A7EE"/>
<path d="M214.135 382.183H67.9285C65.7054 382.183 63.9033 383.984 63.9033 386.207C63.9033 388.429 65.7054 390.231 67.9285 390.231H214.135C216.359 390.231 218.161 388.429 218.161 386.207C218.161 383.984 216.359 382.183 214.135 382.183Z" fill="#A1A7EE"/>
<path d="M328.054 389.13C333.375 389.13 337.687 384.819 337.687 379.5C337.687 374.182 333.375 369.87 328.054 369.87C322.734 369.87 318.422 374.182 318.422 379.5C318.422 384.819 322.734 389.13 328.054 389.13Z" fill="#A1A7EE"/>
<path d="M328.054 383.627C330.334 383.627 332.183 381.779 332.183 379.5C332.183 377.221 330.334 375.373 328.054 375.373C325.774 375.373 323.926 377.221 323.926 379.5C323.926 381.779 325.774 383.627 328.054 383.627Z" fill="#F2F2F2"/>
<path d="M355.64 288.015H57.0223C53.9823 288.015 51.5178 290.478 51.5178 293.517V336.165C51.5178 339.204 53.9823 341.668 57.0223 341.668H355.64C358.68 341.668 361.145 339.204 361.145 336.165V293.517C361.145 290.478 358.68 288.015 355.64 288.015Z" fill="#FAFAFA"/>
<path d="M289.69 304.11H67.9285C65.7054 304.11 63.9033 305.912 63.9033 308.134C63.9033 310.357 65.7054 312.158 67.9285 312.158H289.69C291.913 312.158 293.715 310.357 293.715 308.134C293.715 305.912 291.913 304.11 289.69 304.11Z" fill="#A1A7EE"/>
<path d="M214.135 317.523H67.9285C65.7054 317.523 63.9033 319.325 63.9033 321.547C63.9033 323.77 65.7054 325.571 67.9285 325.571H214.135C216.359 325.571 218.161 323.77 218.161 321.547C218.161 319.325 216.359 317.523 214.135 317.523Z" fill="#A1A7EE"/>
<path d="M328.054 324.471C333.375 324.471 337.687 320.16 337.687 314.841C337.687 309.522 333.375 305.211 328.054 305.211C322.734 305.211 318.422 309.522 318.422 314.841C318.422 320.16 322.734 324.471 328.054 324.471Z" fill="#A1A7EE"/>
<path d="M328.054 318.968C330.334 318.968 332.183 317.12 332.183 314.841C332.183 312.562 330.334 310.714 328.054 310.714C325.774 310.714 323.926 312.562 323.926 314.841C323.926 317.12 325.774 318.968 328.054 318.968Z" fill="#F2F2F2"/>
</g>
<defs>
<filter id="filter0_d_81_2638" x="0.5" y="0.5" width="519" height="534" filterUnits="userSpaceOnUse" color-interpolation-filters="sRGB">
<feFlood flood-opacity="0" result="BackgroundImageFix"/>
<feColorMatrix in="SourceAlpha" type="matrix" values="0 0 0 0 0 0 0 0 0 0 0 0 0 0 0 0 0 0 127 0" result="hardAlpha"/>
<feOffset dy="7"/>
<feGaussianBlur stdDeviation="14.5"/>
<feColorMatrix type="matrix" values="0 0 0 0 0.392157 0 0 0 0 0.392157 0 0 0 0 0.435294 0 0 0 0.2 0"/>
<feBlend mode="normal" in2="BackgroundImageFix" result="effect1_dropShadow_81_2638"/>
<feBlend mode="normal" in="SourceGraphic" in2="effect1_dropShadow_81_2638" result="shape"/>
</filter>
</defs>
</svg>
